<svg width="50" height="66" viewBox="0 0 50 66" fill="none" xmlns="http://www.w3.org/2000/svg">
<rect width="50" height="50" rx="6" fill="#676AC6"/>
<path d="M14.4612 60.4H15.5312V63.83H14.4612V60.4ZM17.6112 60.4H18.6812V63.83H17.6112V60.4ZM12.4512 59.84H20.7312V60.69H12.4512V59.84ZM16.5712 55.03C18.5012 55.03 19.8112 55.81 19.8112 57.05C19.8112 58.27 18.5012 59.06 16.5712 59.06C14.6512 59.06 13.3312 58.27 13.3312 57.05C13.3312 55.81 14.6512 55.03 16.5712 55.03ZM16.5712 55.87C15.2612 55.87 14.4012 56.31 14.4012 57.05C14.4012 57.78 15.2612 58.22 16.5712 58.22C17.8812 58.22 18.7412 57.78 18.7412 57.05C18.7412 56.31 17.8812 55.87 16.5712 55.87ZM23.5904 55.61H24.4404V56.28C24.4404 57.97 23.5104 59.47 21.8804 60.03L21.3504 59.2C22.7704 58.72 23.5904 57.51 23.5904 56.28V55.61ZM23.8004 55.61H24.6404V56.28C24.6404 57.41 25.4204 58.54 26.7904 59.01L26.2704 59.84C24.6904 59.29 23.8004 57.85 23.8004 56.28V55.61ZM26.2804 56.98H28.1804V57.84H26.2804V56.98ZM21.6504 55.26H26.5504V56.1H21.6504V55.26ZM22.7704 60.6H28.9304V63.83H27.8804V61.45H22.7704V60.6ZM27.8804 54.69H28.9304V60.14H27.8804V54.69ZM32.5796 56.06H33.4196V57.34C33.4196 59.35 32.3896 61.34 30.8196 62.09L30.2196 61.26C31.6296 60.61 32.5796 58.9 32.5796 57.34V56.06ZM32.7996 56.06H33.6296V57.34C33.6296 58.85 34.5696 60.43 35.9996 61.03L35.4196 61.86C33.8296 61.15 32.7996 59.3 32.7996 57.34V56.06ZM30.5496 55.6H35.6596V56.47H30.5496V55.6ZM36.7296 54.69H37.7796V63.83H36.7296V54.69Z" fill="#3D3D3D"/>
<path d="M37.6767 16.9506C36.4655 18.7694 34.5956 19.7712 32.4117 19.7712H19.5905C17.4066 19.7712 15.5372 18.7694 14.3255 16.9506L14.1206 16.6428C13.8089 16.182 14.1497 15.5443 14.7056 15.5485H19.133L19.7278 14.3834C19.8478 14.1483 20.0897 14 20.3536 14H31.6486C31.913 14 32.1548 14.1483 32.2748 14.3838L32.8687 15.5485H37.2966C37.8525 15.5443 38.1933 16.182 37.8816 16.6428L37.6767 16.9506Z" fill="white"/>
<path d="M14.7035 34.5927H16.676V32.1531H19.488V34.5927H20.8943V31.4493C20.8943 31.0607 20.5793 30.7454 20.1912 30.7454H16.676V29.1664C17.5821 29.5291 18.558 29.7135 19.5888 29.7135H32.4101C33.4423 29.7135 34.4196 29.5287 35.3266 29.165V30.7459H31.8115C31.4234 30.7459 31.1084 31.0612 31.1084 31.4497V34.5932H32.5146V32.1536H35.3266V34.5932H37.2987C38.2315 34.6303 38.2305 35.9639 37.2987 36.0009H14.7035C13.7707 35.9639 13.7716 34.6298 14.7035 34.5927ZM23.1869 34.5927H24.5932V32.1531H27.4094V34.5927H28.8157V31.4493C28.8157 31.0607 28.5007 30.7454 28.1126 30.7454H23.8905C23.5024 30.7454 23.1874 31.0607 23.1874 31.4493L23.1869 34.5927Z" fill="white"/>
<path d="M17.8024 22.6754V20.9819C18.3771 21.1123 18.9738 21.179 19.5907 21.179H32.4119C33.0288 21.179 33.6255 21.1123 34.2002 20.9819V22.6754H17.8024Z" fill="white"/>
<path d="M37.9146 24.4543C38.0369 24.6833 38.0234 24.9606 37.8799 25.1769L37.6746 25.4847C36.4634 27.3035 34.5935 28.3053 32.4096 28.3053H19.5883C17.4044 28.3053 15.5351 27.3035 14.3234 25.4847L14.1185 25.1769C13.8068 24.7161 14.1476 24.0784 14.7035 24.0826H37.2949C37.5541 24.0826 37.7923 24.2257 37.9146 24.4543Z" fill="white"/>
</svg>
