<svg width="50" height="66" viewBox="0 0 50 66" fill="none" xmlns="http://www.w3.org/2000/svg">
<rect width="50" height="50" rx="6" fill="#676AC6"/>
<path d="M5.72195 56.06H6.55195V57.34C6.55195 59.31 5.52195 61.33 3.98195 62.09L3.38195 61.26C4.78195 60.59 5.72195 58.87 5.72195 57.34V56.06ZM5.93195 56.06H6.76195V57.34C6.76195 58.76 7.65195 60.38 9.05195 61.03L8.46195 61.86C6.92195 61.12 5.93195 59.21 5.93195 57.34V56.06ZM3.72195 55.6H8.69195V56.47H3.72195V55.6ZM9.59195 54.69H10.642V63.83H9.59195V54.69ZM10.402 58.29H12.062V59.16H10.402V58.29ZM17.3212 57.14H19.5512V57.99H17.3212V57.14ZM18.9812 54.7H20.0312V61.38H18.9812V54.7ZM14.1112 62.8H20.2612V63.65H14.1112V62.8ZM14.1112 60.8H15.1512V63.27H14.1112V60.8ZM14.6912 55.86H15.5412V56.52C15.5412 58.21 14.6112 59.71 12.9812 60.29L12.4512 59.45C13.8712 58.96 14.6912 57.76 14.6912 56.52V55.86ZM14.9012 55.86H15.7412V56.52C15.7412 57.65 16.5212 58.79 17.8912 59.27L17.3712 60.09C15.7912 59.54 14.9012 58.1 14.9012 56.52V55.86ZM12.7512 55.38H17.6512V56.22H12.7512V55.38ZM27.8804 54.69H28.9204V63.83H27.8804V54.69ZM25.9104 58.28H28.3704V59.14H25.9104V58.28ZM24.9204 55.66H25.9504C25.9504 58.34 24.9604 60.62 21.8704 62.17L21.3104 61.35C23.9304 60.05 24.9204 58.24 24.9204 55.84V55.66ZM21.7204 55.66H25.4704V56.5H21.7204V55.66ZM31.2696 58.87H37.6096V59.72H31.2696V58.87ZM30.2596 61.87H38.5396V62.74H30.2596V61.87ZM33.8596 59.25H34.8996V62.18H33.8596V59.25ZM31.2696 55.37H37.5296V56.22H32.3096V59.24H31.2696V55.37ZM39.1588 61.9H47.4388V62.76H39.1588V61.9ZM42.7588 60.04H43.7988V62.25H42.7588V60.04ZM40.1288 55.33H46.4488V58.22H41.1888V59.92H40.1488V57.39H45.4088V56.17H40.1288V55.33ZM40.1488 59.49H46.6588V60.34H40.1488V59.49Z" fill="#3D3D3D"/>
<path fill-rule="evenodd" clip-rule="evenodd" d="M28.93 14.72H32.91C33.39 14.72 33.77 14.33 33.77 13.86C33.77 13.39 33.38 13 32.91 13H28.33C27.45 13 26.82 13.87 27.1 14.71L27.97 17.32H23.85C22.69 17.32 21.68 18.09 21.36 19.2L21.15 19.92C21.04 19.92 20.93 19.91 20.82 19.91C18.44 19.91 16.5 21.84 16.5 24.23C16.5 26.62 18.43 28.55 20.82 28.55C23.21 28.55 25.14 26.62 25.14 24.23C25.14 22.56 24.2 21.12 22.81 20.4L23.02 19.68C23.13 19.31 23.46 19.05 23.85 19.05H28.55L29.03 20.49C27.74 21.24 26.87 22.63 26.87 24.23C26.87 26.61 28.8 28.55 31.19 28.55C33.58 28.55 35.51 26.62 35.51 24.23C35.51 21.84 33.58 19.91 31.19 19.91C31.01 19.91 30.84 19.92 30.67 19.94L28.93 14.73V14.72ZM29.59 22.17L30.36 24.49C30.51 24.94 31 25.19 31.45 25.04C31.9 24.89 32.15 24.4 32 23.95L31.23 21.63C32.64 21.65 33.77 22.81 33.77 24.22C33.77 25.63 32.61 26.81 31.18 26.81C29.75 26.81 28.59 25.65 28.59 24.22C28.59 23.39 28.98 22.65 29.59 22.18V22.17ZM20.66 21.63L19.99 23.98C19.86 24.44 20.12 24.92 20.58 25.05C21.04 25.18 21.52 24.92 21.65 24.46L22.32 22.11C22.98 22.58 23.41 23.35 23.41 24.22C23.41 25.65 22.25 26.81 20.82 26.81C19.39 26.81 18.23 25.65 18.23 24.22C18.23 22.79 19.3 21.72 20.66 21.63ZM19.95 15.58C19.95 15.1 20.34 14.72 20.81 14.72H24.26C24.74 14.72 25.12 15.11 25.12 15.58C25.12 16.05 24.73 16.44 24.26 16.44H20.81C20.33 16.44 19.95 16.05 19.95 15.58Z" fill="white"/>
<path d="M14 32.96H18.46V34.37H14V36.99H38V34.37H33.54V32.96H38V30.34H14V32.96ZM26.79 32.96H31.96V34.37H26.79V32.96ZM20.04 32.96H25.21V34.37H20.04V32.96Z" fill="white"/>
</svg>
