<svg width="63" height="66" viewBox="0 0 63 66" fill="none" xmlns="http://www.w3.org/2000/svg">
<rect x="6" width="50" height="50" rx="6" fill="#676AC6"/>
<path d="M5.24273 60.85C6.02273 60.85 6.55273 60.01 6.55273 58.58C6.55273 57.18 6.02273 56.33 5.24273 56.33C4.47273 56.33 3.94273 57.18 3.94273 58.58C3.94273 60.01 4.47273 60.85 5.24273 60.85ZM9.27273 54.73H10.3127V63.79H9.27273V58.94H7.52273C7.40273 60.69 6.48273 61.77 5.24273 61.77C3.91273 61.77 2.96273 60.54 2.96273 58.58C2.96273 56.64 3.91273 55.4 5.24273 55.4C6.45273 55.4 7.37273 56.44 7.51273 58.1H9.27273V54.73ZM18.452 54.75V61.4H17.412V54.75H18.452ZM16.492 59.05L16.602 59.88C15.232 60.13 14.052 60.18 12.232 60.18H11.472V57.32H14.572V56.19H11.452V55.36H15.582V58.1H12.492V59.34C14.132 59.33 15.222 59.28 16.492 59.05ZM13.532 62.76H18.692V63.6H12.502V60.87H13.532V62.76ZM25.6012 54.73H26.6412V63.79H25.6012V54.73ZM21.8312 55.4C23.1812 55.4 24.1612 56.64 24.1612 58.58C24.1612 60.54 23.1812 61.77 21.8312 61.77C20.4912 61.77 19.5112 60.54 19.5112 58.58C19.5112 56.64 20.4912 55.4 21.8312 55.4ZM21.8312 56.33C21.0512 56.33 20.5012 57.18 20.5012 58.58C20.5012 60 21.0512 60.85 21.8312 60.85C22.6212 60.85 23.1712 60 23.1712 58.58C23.1712 57.18 22.6212 56.33 21.8312 56.33ZM29.3504 57.69V59.17H33.6304V57.69H29.3504ZM32.0004 61.82H35.5904V62.67H27.4104V61.82H30.9704V60H28.3304V55.34H29.3504V56.86H33.6304V55.34H34.6504V60H32.0004V61.82ZM43.3696 55.97V56.8H35.9796V55.97H39.1696V54.86H40.1996V55.97H43.3696ZM37.7196 59.05C37.7196 59.65 38.4396 59.99 39.6696 59.99C40.9096 59.99 41.6296 59.65 41.6296 59.05C41.6296 58.46 40.9096 58.12 39.6696 58.12C38.4396 58.12 37.7196 58.46 37.7196 59.05ZM40.1996 61.94H43.7896V62.79H35.5996V61.94H39.1696V60.78C37.6196 60.67 36.6696 60.05 36.6696 59.05C36.6696 57.96 37.8296 57.32 39.6696 57.32C41.5196 57.32 42.6796 57.96 42.6796 59.05C42.6796 60.05 41.7496 60.66 40.1996 60.78V61.94ZM51.9788 59.15V60H48.3788V63.77H47.3388V60H43.8088V59.15H49.6788C49.9388 57.89 49.9388 56.95 49.9388 56.12H44.7888V55.29H50.9488V56.08C50.9488 56.93 50.9488 57.87 50.7188 59.15H51.9788ZM53.398 61.36V60.53H59.488V63.78H58.458V61.36H53.398ZM56.748 58.01H58.458V56.85H56.758C56.798 57.03 56.828 57.22 56.828 57.43C56.828 57.63 56.798 57.83 56.748 58.01ZM54.478 58.75C55.258 58.75 55.848 58.22 55.848 57.43C55.848 56.64 55.258 56.1 54.478 56.1C53.698 56.1 53.108 56.64 53.108 57.43C53.108 58.22 53.698 58.75 54.478 58.75ZM58.458 54.74L59.488 54.73V60.08H58.458V58.85H56.318C55.898 59.34 55.238 59.64 54.478 59.63C53.138 59.63 52.128 58.71 52.128 57.43C52.128 56.14 53.138 55.23 54.478 55.23C55.238 55.23 55.898 55.53 56.318 56.01H58.458V54.74Z" fill="#3D3D3D"/>
<path d="M30.9977 19.0845L28.5138 16.6001C27.6936 15.7798 27.6936 14.4392 28.5138 13.6189C29.1839 12.9439 30.2009 12.822 30.9977 13.2486C31.7944 12.822 32.8114 12.9439 33.4815 13.6189C34.3017 14.4392 34.3017 15.7798 33.4815 16.6001L30.9977 19.0845Z" fill="white"/>
<path d="M21.812 22.9376C20.2607 22.9376 19 21.6766 19 20.1251C19 18.5735 20.2607 17.3126 21.812 17.3126C23.3632 17.3126 24.6239 18.5735 24.6239 20.1251C24.6239 21.6766 23.3632 22.9376 21.812 22.9376Z" fill="white"/>
<path d="M40.1834 22.9376C38.6321 22.9376 37.3714 21.6766 37.3714 20.1251C37.3714 18.5735 38.6321 17.3126 40.1834 17.3126C41.7346 17.3126 42.9953 18.5735 42.9953 20.1251C42.9953 21.6766 41.7346 22.9376 40.1834 22.9376Z" fill="white"/>
<path d="M35.9186 37V26.9969L30.1119 24.2922C29.0621 23.786 28.6028 22.5344 29.0808 21.4891C29.5261 20.547 30.6837 19.9376 31.8694 20.4485L41.0504 24.7141C42.2501 25.3141 43 26.5235 43 27.8594V37H35.9186Z" fill="white"/>
<path d="M30.9977 32.7813C29.4464 32.7813 28.1857 31.5203 28.1857 29.9688C28.1857 28.4172 29.4464 27.1563 30.9977 27.1563C32.5489 27.1563 33.8096 28.4172 33.8096 29.9688C33.8096 31.5203 32.5489 32.7813 30.9977 32.7813Z" fill="white"/>
<path d="M34.5126 37H27.4827V36.2969C27.4827 34.3563 29.0574 32.7813 30.9977 32.7813C32.9379 32.7813 34.5126 34.3563 34.5126 36.2969V37Z" fill="white"/>
<path d="M27.5624 21.6532L21.1043 24.6438C20.9637 24.7704 19 25.4876 19 27.8594V37H26.0767V26.9969L29.348 25.4641C27.9654 24.7047 27.2578 23.1391 27.5624 21.6532Z" fill="white"/>
</svg>
