<svg width="54" height="66" viewBox="0 0 54 66" fill="none" xmlns="http://www.w3.org/2000/svg">
<rect x="2.5" y="0.5" width="49" height="49" rx="5.5" fill="#EEEEEE" stroke="#676AC6"/>
<path d="M3.04234 55.36C4.40234 55.36 5.38234 56.61 5.38234 58.58C5.38234 60.55 4.40234 61.81 3.04234 61.81C1.68234 61.81 0.702344 60.55 0.702344 58.58C0.702344 56.61 1.68234 55.36 3.04234 55.36ZM3.04234 56.31C2.25234 56.31 1.70234 57.16 1.70234 58.58C1.70234 60.01 2.25234 60.87 3.04234 60.87C3.83234 60.87 4.38234 60.01 4.38234 58.58C4.38234 57.16 3.83234 56.31 3.04234 56.31ZM6.64234 54.69H7.69234V63.83H6.64234V54.69ZM7.45234 58.25H9.11234V59.12H7.45234V58.25ZM9.51156 59.1H17.7716V59.94H9.51156V59.1ZM13.1216 57.68H14.1616V59.44H13.1216V57.68ZM10.5316 57.35H16.8216V58.18H10.5316V57.35ZM10.5316 55.1H16.7616V55.93H11.5716V57.86H10.5316V55.1ZM13.6216 60.51C15.5816 60.51 16.7716 61.11 16.7716 62.17C16.7716 63.23 15.5816 63.83 13.6216 63.83C11.6616 63.83 10.4716 63.23 10.4716 62.17C10.4716 61.11 11.6616 60.51 13.6216 60.51ZM13.6216 61.31C12.2816 61.31 11.5316 61.61 11.5316 62.17C11.5316 62.73 12.2816 63.02 13.6216 63.02C14.9616 63.02 15.7116 62.73 15.7116 62.17C15.7116 61.61 14.9616 61.31 13.6216 61.31ZM20.7308 56.06H21.5708V57.34C21.5708 59.35 20.5408 61.34 18.9708 62.09L18.3708 61.26C19.7808 60.61 20.7308 58.9 20.7308 57.34V56.06ZM20.9508 56.06H21.7808V57.34C21.7808 58.85 22.7208 60.43 24.1508 61.03L23.5708 61.86C21.9808 61.15 20.9508 59.3 20.9508 57.34V56.06ZM18.7008 55.6H23.8108V56.47H18.7008V55.6ZM24.8808 54.69H25.9308V63.83H24.8808V54.69ZM29.8 59.33H30.85V61.35H29.8V59.33ZM33.83 54.69H34.88V61.63H33.83V54.69ZM28.49 62.8H35.09V63.65H28.49V62.8ZM28.49 60.96H29.54V63.03H28.49V60.96ZM27.4 59.68L27.26 58.83C28.94 58.83 31.19 58.81 33.12 58.56L33.19 59.32C31.23 59.64 29.05 59.68 27.4 59.68ZM32.03 60.05H34.08V60.79H32.03V60.05ZM30.22 55.04C31.55 55.04 32.48 55.68 32.48 56.65C32.48 57.62 31.55 58.25 30.22 58.25C28.88 58.25 27.96 57.62 27.96 56.65C27.96 55.68 28.88 55.04 30.22 55.04ZM30.22 55.81C29.47 55.81 28.95 56.12 28.95 56.65C28.95 57.17 29.47 57.48 30.22 57.48C30.96 57.48 31.48 57.17 31.48 56.65C31.48 56.12 30.96 55.81 30.22 55.81ZM38.5292 55.44H39.3892V56.94C39.3892 59.15 38.3992 61.18 36.7592 61.98L36.1292 61.11C37.5892 60.45 38.5292 58.69 38.5292 56.94V55.44ZM38.7292 55.44H39.5792V56.94C39.5792 58.62 40.5092 60.3 41.9492 60.94L41.3292 61.78C39.7192 61.02 38.7292 59.07 38.7292 56.94V55.44ZM42.6792 54.68H43.7292V63.84H42.6792V54.68ZM49.7784 56.2H52.0784V57.05H49.7784V56.2ZM51.6284 54.69H52.6784V59.37H51.6284V54.69ZM46.7284 59.8H52.6784V62.11H47.7784V63.39H46.7484V61.34H51.6384V60.62H46.7284V59.8ZM46.7484 62.89H52.9784V63.72H46.7484V62.89ZM47.2984 54.98H48.1484V55.75C48.1484 57.45 47.2284 58.87 45.6084 59.42L45.0684 58.59C46.5084 58.13 47.2984 57 47.2984 55.75V54.98ZM47.4884 54.98H48.3384V55.75C48.3384 56.89 49.1284 57.97 50.4984 58.41L49.9584 59.22C48.3984 58.69 47.4884 57.34 47.4884 55.75V54.98Z" fill="#3D3D3D"/>
<path d="M34.0556 30.683C34.0556 32.3787 33.2496 33.9903 31.8519 35.1413C31.5433 35.4052 31.2033 35.6411 30.8444 35.8488C30.4289 33.5579 29.1507 31.4635 27.2304 29.9025C29.2011 28.5718 31.5811 27.8194 34.0556 27.7407V30.683ZM29.963 36.298C28.8863 36.7641 27.6963 37.0055 26.5 36.9999C22.3381 36.9999 18.9444 34.1643 18.9444 30.683V27.7464C21.6015 27.8306 24.1515 28.6953 26.1978 30.2113C28.2756 31.7386 29.6167 33.9173 29.963 36.298Z" fill="#3D3D3D"/>
<path d="M27.2052 23.2949C27.2052 23.6923 26.8904 24.0128 26.5 24.0128C26.1096 24.0128 25.7948 23.6923 25.7948 23.2949C25.7948 22.8974 26.1096 22.5769 26.5 22.5769C26.8904 22.5769 27.2052 22.8974 27.2052 23.2949Z" fill="#3D3D3D"/>
<path d="M18.9444 18.8205V21.5321C18.3778 21.3333 18 20.7885 18 20.1795C18 19.5705 18.3778 19.0256 18.9444 18.8269V18.8205ZM34.0556 18.8205C34.6222 19.0192 35 19.5641 35 20.1731C35 20.782 34.6222 21.3269 34.0556 21.5256V18.8141V18.8205ZM26.5 24.9808C27.413 24.9808 28.1496 24.2244 28.1496 23.3013C28.1496 22.3782 27.4067 21.6218 26.5 21.6218C25.5933 21.6218 24.8504 22.3782 24.8504 23.3013C24.8504 24.2244 25.5933 24.9808 26.5 24.9808ZM26.5 12.9615C25.4548 12.9615 24.6111 13.8205 24.6111 14.8846C24.6111 15.9487 25.4548 16.8077 26.5 16.8077C27.5137 16.8077 28.4456 16.2628 28.9556 15.3718C29.4656 14.4808 29.4593 13.3782 28.9556 12.4872C31.4678 13.5064 33.1111 15.9808 33.1174 18.7308V22.0962C33.1174 24.4872 31.2159 26.4231 28.8674 26.4231H24.1452C21.7967 26.4231 19.8952 24.4872 19.8952 22.0962V18.7308C19.8952 15.0128 22.8481 12 26.5 12C27.5452 12 28.3889 12.859 28.3889 13.9231C28.3889 14.9872 27.5452 15.8462 26.5 15.8462C25.9774 15.8462 25.5556 15.4167 25.5556 14.8846C25.5556 14.3526 25.9774 13.9231 26.5 13.9231V12.9615ZM30.2778 19.6923H31.2222C31.2222 18.6282 30.3785 17.7692 29.3333 17.7692C28.2881 17.7692 27.4444 18.6282 27.4444 19.6923H28.3889C28.3889 19.1603 28.8107 18.7308 29.3333 18.7308C29.8559 18.7308 30.2778 19.1603 30.2778 19.6923ZM24.6111 19.6923H25.5556C25.5556 18.6282 24.7119 17.7692 23.6667 17.7692C22.6215 17.7692 21.7778 18.6282 21.7778 19.6923H22.7222C22.7222 19.1603 23.1441 18.7308 23.6667 18.7308C24.1893 18.7308 24.6111 19.1603 24.6111 19.6923Z" fill="#3D3D3D"/>
</svg>
