<svg width="51" height="66" viewBox="0 0 51 66" fill="none" xmlns="http://www.w3.org/2000/svg">
<rect x="0.5" y="0.5" width="49" height="49" rx="5.5" fill="#EEEEEE" stroke="#676AC6"/>
<path d="M2.03234 57.6C2.03234 58.43 2.63234 58.97 3.42234 58.97C4.21234 58.97 4.82234 58.43 4.82234 57.6C4.82234 56.78 4.21234 56.24 3.42234 56.24C2.63234 56.24 2.03234 56.78 2.03234 57.6ZM5.83234 57.6C5.83234 58.92 4.79234 59.86 3.42234 59.86C2.06234 59.86 1.02234 58.92 1.02234 57.6C1.02234 56.28 2.06234 55.35 3.42234 55.35C4.79234 55.35 5.83234 56.28 5.83234 57.6ZM3.28234 60.68V62.76H8.32234V63.6H2.24234V60.68H3.28234ZM7.96234 57.42H9.24234V58.27H7.96234V61.36H6.93234V54.74H7.96234V57.42ZM14.6016 58.7L14.1016 59.5C13.0616 59.16 12.2916 58.47 11.8916 57.56C11.4816 58.53 10.7016 59.3 9.62156 59.67L9.12156 58.86C10.5416 58.38 11.3516 57.19 11.3516 55.96V55.09H12.4016V55.96C12.4016 57.15 13.2116 58.26 14.6016 58.7ZM11.6516 61.16V62.84H15.5416V61.16H11.6516ZM10.6416 63.66V60.34H16.5516V63.66H10.6416ZM15.5216 54.75H16.5516V59.87H15.5216V54.75ZM23.4508 57.96V56.04H19.3208V57.96H23.4508ZM24.4708 55.22V58.79H18.3008V55.22H24.4708ZM25.4908 59.9V60.73H21.8808V63.77H20.8508V60.73H17.3008V59.9H25.4908ZM32.95 54.74V61.3H31.92V54.74H32.95ZM26.69 57.6C26.69 58.42 27.28 58.97 28.08 58.97C28.87 58.97 29.47 58.42 29.47 57.6C29.47 56.77 28.87 56.23 28.08 56.23C27.28 56.23 26.69 56.77 26.69 57.6ZM30.47 57.6C30.47 58.91 29.44 59.86 28.08 59.86C26.72 59.86 25.68 58.91 25.68 57.6C25.68 56.28 26.72 55.34 28.08 55.34C29.44 55.34 30.47 56.28 30.47 57.6ZM28.09 62.76H33.21V63.6H27.05V60.64H28.09V62.76ZM37.8492 58.75L37.9592 59.59C36.9192 59.78 36.0592 59.81 34.6592 59.81H34.0492V55.38H37.5692V56.21H35.0492V57.16H37.4692V57.96H35.0492V58.97C36.1892 58.96 36.9592 58.92 37.8492 58.75ZM35.2192 61.5V60.67H41.3492V63.78H40.3192V61.5H35.2192ZM40.3692 54.74H41.3492V60.23H40.3692V57.87H39.3692V60.17H38.4092V54.91H39.3692V57.03H40.3692V54.74ZM44.7384 60.73V58.51H43.1784V60.73H44.7384ZM44.7384 57.69V55.57H45.6984V61.57H42.2084V55.57H43.1784V57.69H44.7384ZM48.6384 54.73L49.6184 54.74V63.77H48.6384V59.1H47.6084V63.35H46.6384V54.91H47.6084V58.26H48.6384V54.73Z" fill="#3D3D3D"/>
<path d="M26.8464 20.2189H37.2059C37.6448 20.2189 38 19.863 38 19.4248V14.7941C38 14.3552 37.6442 14 37.2059 14H26.8464C26.4076 14 26.0524 14.3558 26.0524 14.7941V19.4242C26.0524 19.863 26.4082 20.2183 26.8464 20.2183V20.2189ZM30.7704 16.9065H33.2814V17.844H30.7704V16.9065Z" fill="#3D3D3D"/>
<path d="M26.8464 26.8436H37.2059C37.6448 26.8436 38 26.4878 38 26.0496V21.9504C38 21.5116 37.6442 21.1564 37.2059 21.1564H26.8464C26.4076 21.1564 26.0524 21.5122 26.0524 21.9504V26.0496C26.0524 26.4884 26.4082 26.8436 26.8464 26.8436ZM30.7704 23.5312H33.2814V24.4688H30.7704V23.5312Z" fill="#3D3D3D"/>
<path d="M26.8464 34H37.2059C37.6448 34 38 33.6442 38 33.2059V28.5758C38 28.137 37.6442 27.7817 37.2059 27.7817H26.8464C26.4076 27.7817 26.0524 28.1376 26.0524 28.5758V33.2059C26.0524 33.6448 26.4082 34 26.8464 34ZM30.7704 30.156H33.2814V31.0935H30.7704V30.156Z" fill="#3D3D3D"/>
<path d="M24.1536 14H13.7941C13.3558 14 13 14.3558 13 14.7941V19.4242C13 19.863 13.3558 20.2183 13.7941 20.2183H24.1536C24.5924 20.2183 24.9476 19.8624 24.9476 19.4242V14.7941C24.9476 14.3552 24.5918 14 24.1536 14ZM20.2296 17.844H17.7186V16.9065H20.2296V17.844Z" fill="#3D3D3D"/>
<path d="M24.1536 21.1564H13.7941C13.3552 21.1564 13 21.5122 13 21.9504V26.0496C13 26.4884 13.3558 26.8436 13.7941 26.8436H24.1536C24.5924 26.8436 24.9476 26.4878 24.9476 26.0496V21.9504C24.9476 21.5116 24.5918 21.1564 24.1536 21.1564ZM20.2296 24.4688H17.7186V23.5312H20.2296V24.4688Z" fill="#3D3D3D"/>
<path d="M13.7941 34H24.1536C24.5924 34 24.9476 33.6442 24.9476 33.2059V28.5758C24.9476 28.137 24.5918 27.7817 24.1536 27.7817H13.7941C13.3552 27.7817 13 28.1376 13 28.5758V33.2059C13 33.6448 13.3558 34 13.7941 34ZM17.7186 30.156H20.2296V31.0935H17.7186V30.156Z" fill="#3D3D3D"/>
</svg>
