<svg width="50" height="66" viewBox="0 0 50 66" fill="none" xmlns="http://www.w3.org/2000/svg">
<rect x="0.5" y="0.5" width="49" height="49" rx="5.5" fill="#EEEEEE" stroke="#676AC6"/>
<path d="M3.56195 61.85H11.842V62.71H3.56195V61.85ZM7.16195 59.64H8.20195V62.07H7.16195V59.64ZM4.48195 55.41H10.872V59.8H4.48195V55.41ZM9.85195 56.25H5.51195V58.96H9.85195V56.25ZM12.8712 55.21H13.9112V56.55H16.0612V55.21H17.0912V59.53H12.8712V55.21ZM13.9112 57.37V58.7H16.0612V57.37H13.9112ZM16.8312 56.93H19.2512V57.79H16.8312V56.93ZM18.9812 54.69H20.0312V59.99H18.9812V54.69ZM14.0312 60.41H20.0312V63.72H14.0312V60.41ZM19.0012 61.24H15.0612V62.88H19.0012V61.24ZM25.4804 54.88C27.4804 54.88 28.7404 55.54 28.7404 56.63C28.7404 57.73 27.4804 58.38 25.4804 58.38C23.4904 58.38 22.2304 57.73 22.2304 56.63C22.2304 55.54 23.4904 54.88 25.4804 54.88ZM25.4804 55.7C24.1204 55.7 23.3104 56.02 23.3104 56.63C23.3104 57.23 24.1204 57.56 25.4804 57.56C26.8404 57.56 27.6604 57.23 27.6604 56.63C27.6604 56.02 26.8404 55.7 25.4804 55.7ZM22.3404 60.66H28.6104V63.72H22.3404V60.66ZM27.5904 61.5H23.3704V62.88H27.5904V61.5ZM21.3504 59.05H29.6104V59.88H21.3504V59.05ZM32.5296 55.12H33.3996V56C33.3996 57.73 32.4496 59.25 30.7996 59.83L30.2796 59C31.7296 58.5 32.5296 57.27 32.5296 56V55.12ZM32.7296 55.12H33.5896V56C33.5896 57.23 34.3896 58.38 35.8096 58.84L35.2896 59.67C33.6596 59.11 32.7296 57.69 32.7296 56V55.12ZM31.6296 60.6H37.7896V63.83H36.7396V61.45H31.6296V60.6ZM36.7396 54.69H37.7896V60.17H36.7396V54.69ZM44.0588 56.89H45.9588V57.75H44.0588V56.89ZM45.6788 54.69H46.7288V60.01H45.6788V54.69ZM40.7288 60.42H46.7288V63.72H40.7288V60.42ZM45.6988 61.25H41.7588V62.88H45.6988V61.25ZM41.3888 55.55H42.2388V56.22C42.2388 57.91 41.3088 59.4 39.6788 59.97L39.1488 59.14C40.5688 58.65 41.3888 57.45 41.3888 56.22V55.55ZM41.5988 55.55H42.4388V56.21C42.4388 57.34 43.2188 58.47 44.5888 58.95L44.0688 59.78C42.4888 59.23 41.5988 57.79 41.5988 56.21V55.55ZM39.4488 55.22H44.3488V56.06H39.4488V55.22Z" fill="#3D3D3D"/>
<path d="M36.2969 25.755H35.558C35.2364 20.9101 31.6361 16.9365 26.9552 16.0764C27.0808 15.8064 27.1563 15.4258 27.1563 15.1089C27.1563 13.9459 26.2102 13 25.047 13C23.8838 13 22.9377 13.9459 22.9377 15.1089C22.9377 15.4258 23.0131 15.8064 23.1388 16.0764C18.4578 16.9361 14.7643 20.9101 14.4422 25.755H13.7033C13.3146 25.755 13 26.0508 13 26.4394C13 26.828 13.3146 27.1425 13.7033 27.1425H36.2965C36.6851 27.1425 36.9997 26.828 36.9997 26.4394C36.9997 26.0508 36.6851 25.755 36.2965 25.755H36.2969ZM25.047 15.8945C24.6593 15.8945 24.3437 15.4965 24.3437 15.1089C24.3437 14.7212 24.6588 14.4058 25.047 14.4058C25.4352 14.4058 25.7503 14.7208 25.7503 15.1089C25.7503 15.497 25.4352 15.8945 25.047 15.8945Z" fill="#3D3D3D"/>
<path d="M15.1098 29.954C14.716 29.954 14.4065 30.2634 14.4065 30.6572V36.2919C14.4065 36.6857 14.716 36.9951 15.1098 36.9951H17.2191V29.9545H15.1098V29.954Z" fill="#3D3D3D"/>
<path d="M34.8084 29.3522C34.2589 28.8028 33.369 28.8028 32.82 29.3522L28.7935 33.359C28.2891 33.8634 27.6252 34.1437 26.9167 34.1718H24.9907C24.6049 34.1718 24.2875 33.8849 24.2875 33.4687C24.2875 33.0524 24.6049 32.7656 24.9907 32.7656H27.1563C27.9299 32.7656 28.5624 32.1328 28.5624 31.3598C28.5624 30.5868 27.9295 29.9728 27.1563 29.9728H25.7503C25.5036 29.9728 25.3175 29.9817 25.1173 29.804C24.8679 29.5861 24.5969 29.3137 24.3437 29.1525C22.9381 28.1606 20.9057 27.9197 19.2108 28.8051C18.8507 28.9931 18.6247 29.3662 18.6247 29.7726V36.9946C27.5684 37.0068 26.7498 36.9946 26.8038 36.9946C28.3059 36.9946 29.719 36.4096 30.7814 35.3469L34.8079 31.3214C35.3574 30.772 35.3574 29.9011 34.8079 29.3522H34.8084Z" fill="#3D3D3D"/>
</svg>
