<svg width="59" height="66" viewBox="0 0 59 66" fill="none" xmlns="http://www.w3.org/2000/svg">
<rect x="4.5" y="0.5" width="49" height="49" rx="5.5" fill="#EEEEEE" stroke="#676AC6"/>
<path d="M5.62273 57.16H7.26273V54.75H8.29273V61.35H7.26273V58.01H5.62273V57.16ZM6.18273 59.27L5.67273 60.07C4.67273 59.73 3.94273 59.02 3.56273 58.13C3.16273 59.11 2.40273 59.9 1.33273 60.27L0.802734 59.46C2.20273 58.97 3.02273 57.78 3.02273 56.56V56.25H1.11273V55.42H5.94273V56.25H4.06273V56.56C4.06273 57.67 4.83273 58.8 6.18273 59.27ZM3.47273 62.76H8.52273V63.6H2.44273V60.78H3.47273V62.76ZM9.52195 55.69H13.802C13.802 58.38 12.722 60.66 9.62195 62.16L9.07195 61.34C11.442 60.2 12.562 58.61 12.742 56.53H9.52195V55.69ZM15.432 54.74H16.462V63.77H15.432V54.74ZM23.3312 62.83V61.78H19.2512V62.83H23.3312ZM23.3312 60.98V59.9H24.3612V63.66H18.2312V59.9H19.2512V60.98H23.3312ZM24.1512 58.35H25.3912V59.19H17.2112V58.35H23.1312C23.3412 57.36 23.3612 56.62 23.3612 55.96H18.2412V55.13H24.3712V55.82C24.3712 56.52 24.3712 57.28 24.1512 58.35ZM33.1004 57.61L32.7104 58.41C31.2604 58.18 30.0504 57.51 29.4704 56.54C28.9004 57.5 27.7004 58.19 26.2404 58.41L25.8604 57.61C27.6404 57.37 28.9504 56.35 28.9504 55.23V54.89H30.0104V55.23C30.0104 56.37 31.2904 57.37 33.1004 57.61ZM26.3104 61.64V60.81H32.5704V63.78H31.5404V61.64H26.3104ZM29.9904 59.2H33.5904V60.03H25.4004V59.2H28.9604V57.92H29.9904V59.2ZM34.3296 58.75L34.0196 57.96C35.8296 57.83 36.9596 57.2 37.0896 56.4H34.4196V55.59H37.1696V54.73H38.1996V55.59H40.9496V56.4H38.2796C38.4096 57.2 39.5396 57.83 41.3496 57.96L41.0296 58.75C39.4596 58.62 38.2496 58.1 37.6796 57.3C37.1196 58.1 35.9096 58.62 34.3296 58.75ZM39.7396 62.25C39.7396 61.76 39.0096 61.5 37.6696 61.5C36.3396 61.5 35.6096 61.76 35.6096 62.25C35.6096 62.74 36.3396 62.99 37.6696 62.99C39.0096 62.99 39.7396 62.74 39.7396 62.25ZM41.7696 59.96H38.1996V60.75C39.8296 60.85 40.7796 61.37 40.7796 62.25C40.7796 63.23 39.6296 63.77 37.6696 63.77C35.7196 63.77 34.5596 63.23 34.5596 62.25C34.5596 61.36 35.5296 60.84 37.1696 60.75V59.96H33.5996V59.14H41.7696V59.96ZM46.6188 57.16H48.2588V54.75H49.2888V61.35H48.2588V58.01H46.6188V57.16ZM47.1788 59.27L46.6688 60.07C45.6688 59.73 44.9388 59.02 44.5588 58.13C44.1588 59.11 43.3988 59.9 42.3288 60.27L41.7988 59.46C43.1988 58.97 44.0188 57.78 44.0188 56.56V56.25H42.1088V55.42H46.9388V56.25H45.0588V56.56C45.0588 57.67 45.8288 58.8 47.1788 59.27ZM44.4688 62.76H49.5188V63.6H43.4388V60.78H44.4688V62.76ZM57.838 59.01L57.408 59.87C55.928 59.58 54.648 58.68 54.068 57.48C53.468 58.68 52.188 59.58 50.718 59.87L50.278 59.01C52.068 58.71 53.518 57.36 53.518 55.97V55.29H54.608V55.97C54.608 57.37 56.058 58.71 57.838 59.01ZM54.568 61.8H58.188V62.65H50.008V61.8H53.538V59.69H54.568V61.8Z" fill="#3D3D3D"/>
<path d="M27.1516 11C26.7325 11 26.3948 11.3296 26.3948 11.7388V13.546H27.9026V11.7388C27.9026 11.3296 27.565 11 27.1516 11ZM30.8658 11C30.4467 11 30.109 11.3296 30.109 11.7388V13.546H31.6168V11.7388C31.6168 11.3296 31.2792 11 30.86 11H30.8658ZM25.5157 14.4212C25.0966 14.4212 24.7589 14.7509 24.7589 15.16C24.7589 15.5692 25.0966 15.8988 25.5157 15.8988V16.4728C25.5157 18.0755 26.6451 19.411 28.1704 19.769V24.7531C28.1704 25.1964 28.543 25.5601 29.0029 25.5601C29.4628 25.5601 29.8296 25.1964 29.8296 24.7531V19.7634C31.349 19.3996 32.4784 18.0698 32.4784 16.4672V15.8932C32.8976 15.8932 33.2352 15.5635 33.2352 15.1544C33.2352 14.7452 32.8976 14.4155 32.4784 14.4155H25.5157V14.4212ZM26.5054 20.5135C26.5054 20.5135 26.4589 20.5135 26.4297 20.5135C26.028 20.5135 25.5798 20.5306 25.2712 20.5419C24.6483 20.5647 24.2175 20.6045 23.8333 20.6897C23.4258 20.7806 23.0823 20.9511 22.8261 21.15C22.3488 21.5194 21.9587 22.0707 21.5279 22.9743C21.1379 23.7927 20.6954 24.9293 20.2413 26.1057H19.013C18.4541 26.1057 18 26.549 18 27.0946V27.9754C18 28.521 18.4483 28.9643 19.013 28.9643H19.6301V34.8747C19.6301 35.4999 20.1482 36 20.7827 36H22.6573C23.2337 36 23.7227 35.5851 23.8042 35.0225L24.0429 33.3005H33.9571L34.1958 35.0225C34.2773 35.5795 34.7605 36 35.3427 36H37.2173C37.8576 36 38.3699 35.4942 38.3699 34.8747V28.9643H38.987C39.5459 28.9643 40 28.521 40 27.9754V27.0946C40 26.549 39.5517 26.1057 38.987 26.1057H37.7587C37.3046 24.935 36.8621 23.7927 36.4721 22.9743C36.0413 22.0707 35.6512 21.5194 35.1739 21.15C34.9177 20.9511 34.5684 20.7806 34.1609 20.6897C33.7767 20.6045 33.3459 20.5647 32.7229 20.5419C32.4202 20.5306 31.9661 20.5192 31.5644 20.5135C31.5353 20.5135 31.5179 20.5135 31.4888 20.5135H31.0812V22.7243C31.6692 22.7243 32.2514 22.7299 32.6356 22.747C33.2003 22.7697 33.5263 22.8095 33.6544 22.8379C33.8291 22.8777 33.6544 22.8038 33.7708 22.8891C33.9047 22.997 34.0677 23.1505 34.4287 23.9063C34.7489 24.5769 35.1797 25.6908 35.6279 26.8445H22.3721C22.8145 25.6908 23.2511 24.5769 23.5713 23.9063C23.9323 23.1505 24.0953 22.9914 24.2292 22.8891C24.3398 22.8038 24.1709 22.8777 24.3398 22.8379C24.4678 22.8095 24.7997 22.7697 25.3586 22.747C25.7428 22.7299 26.325 22.7299 26.9129 22.7243V20.5135H26.5054ZM22.4361 28.9416C22.5001 28.9416 22.57 28.9529 22.6282 28.97L24.6483 29.4872C24.9103 29.5554 25.1257 29.7486 25.2188 29.9986C25.312 30.2487 25.2771 30.5272 25.1199 30.7488C24.9627 30.9704 24.7065 31.1012 24.4329 31.1012H22.4128C22.1916 31.1012 21.9762 31.0159 21.819 30.8568C21.6618 30.7033 21.5687 30.4987 21.5687 30.2771V29.7599C21.5687 29.5042 21.6909 29.2598 21.8947 29.1064C22.0519 28.9927 22.2382 28.9302 22.4303 28.9359L22.4361 28.9416ZM35.5581 28.9416C35.7502 28.9416 35.9423 28.9984 36.0937 29.1121C36.2974 29.2655 36.4197 29.5099 36.4197 29.7656V30.2828C36.4197 30.4988 36.3324 30.709 36.1694 30.8625C36.0063 31.0159 35.7968 31.1012 35.5756 31.1068H33.5554C33.2818 31.1068 33.0257 30.9704 32.8685 30.7545C32.7113 30.5328 32.6764 30.2544 32.7695 30.0043C32.8627 29.7543 33.0781 29.561 33.34 29.4928L35.3601 28.9757C35.4184 28.9586 35.4882 28.9529 35.5523 28.9473L35.5581 28.9416Z" fill="#3D3D3D"/>
</svg>
