<svg width="50" height="66" viewBox="0 0 50 66" fill="none" xmlns="http://www.w3.org/2000/svg">
<rect width="50" height="50" rx="6" fill="#676AC6"/>
<path d="M12.3716 57.14H14.6016V57.99H12.3716V57.14ZM14.0316 54.7H15.0816V61.38H14.0316V54.7ZM9.16156 62.8H15.3116V63.65H9.16156V62.8ZM9.16156 60.8H10.2016V63.27H9.16156V60.8ZM9.74156 55.86H10.5916V56.52C10.5916 58.21 9.66156 59.71 8.03156 60.29L7.50156 59.45C8.92156 58.96 9.74156 57.76 9.74156 56.52V55.86ZM9.95156 55.86H10.7916V56.52C10.7916 57.65 11.5716 58.79 12.9416 59.27L12.4216 60.09C10.8416 59.54 9.95156 58.1 9.95156 56.52V55.86ZM7.80156 55.38H12.7016V56.22H7.80156V55.38ZM16.4008 59.47H24.6608V60.3H16.4008V59.47ZM20.0008 58.38H21.0408V59.8H20.0008V58.38ZM17.4608 57.92H23.7308V58.72H17.4608V57.92ZM17.4608 54.94H23.6708V55.75H18.5008V58.37H17.4608V54.94ZM18.2008 56.43H23.4508V57.21H18.2008V56.43ZM20.5208 60.86C22.5208 60.86 23.6708 61.38 23.6708 62.34C23.6708 63.3 22.5208 63.82 20.5208 63.82C18.5208 63.82 17.3708 63.3 17.3708 62.34C17.3708 61.38 18.5208 60.86 20.5208 60.86ZM20.5208 61.64C19.1408 61.64 18.4208 61.88 18.4208 62.34C18.4208 62.81 19.1408 63.04 20.5208 63.04C21.9008 63.04 22.6208 62.81 22.6208 62.34C22.6208 61.88 21.9008 61.64 20.5208 61.64ZM27.63 55.44H28.49V56.94C28.49 59.15 27.5 61.18 25.86 61.98L25.23 61.11C26.69 60.45 27.63 58.69 27.63 56.94V55.44ZM27.83 55.44H28.68V56.94C28.68 58.62 29.61 60.3 31.05 60.94L30.43 61.78C28.82 61.02 27.83 59.07 27.83 56.94V55.44ZM31.78 54.68H32.83V63.84H31.78V54.68ZM36.3592 55.69H37.2192V56.35C37.2192 58.06 36.2892 59.54 34.6492 60.1L34.1292 59.27C35.5592 58.78 36.3592 57.6 36.3592 56.35V55.69ZM36.5592 55.69H37.4092V56.35C37.4092 57.48 38.1692 58.54 39.5692 58.99L39.0692 59.81C37.4492 59.29 36.5592 57.93 36.5592 56.35V55.69ZM34.4192 55.34H39.3292V56.18H34.4192V55.34ZM40.2892 54.69H41.3392V60.16H40.2892V54.69ZM41.0492 56.91H42.6292V57.78H41.0492V56.91ZM38.3992 60.37C40.2692 60.37 41.4392 61.01 41.4392 62.09C41.4392 63.18 40.2692 63.82 38.3992 63.82C36.5192 63.82 35.3492 63.18 35.3492 62.09C35.3492 61.01 36.5192 60.37 38.3992 60.37ZM38.3992 61.2C37.1292 61.2 36.3892 61.51 36.3892 62.09C36.3892 62.68 37.1292 63 38.3992 63C39.6692 63 40.3992 62.68 40.3992 62.09C40.3992 61.51 39.6692 61.2 38.3992 61.2Z" fill="#3D3D3D"/>
<path d="M18.625 29.9219H22.8906V37H18.625V29.9219Z" fill="white"/>
<path d="M24.2969 29.9219H31.375V34.1875H24.2969V29.9219Z" fill="white"/>
<path d="M36.2969 35.5938H35.5938V27.0667C35.4545 27.085 35.3167 27.1094 35.1723 27.1094C34.142 27.1094 33.2336 26.6162 32.6406 25.8639C32.0481 26.6162 31.1397 27.1094 30.1094 27.1094C29.0791 27.1094 28.1237 26.6162 27.5308 25.8639C26.9383 26.6162 26.0298 27.1094 24.9995 27.1094C23.9692 27.1094 23.0612 26.6162 22.4688 25.8639C21.8758 26.6162 20.9673 27.1094 19.937 27.1094C18.9067 27.1094 17.9519 26.6162 17.3594 25.8639C16.7664 26.6162 15.858 27.1094 14.8277 27.1094C14.6833 27.1094 14.5455 27.085 14.4062 27.0667V35.5938H13.7031C13.3145 35.5938 13 35.9083 13 36.2969C13 36.6855 13.3145 37 13.7031 37H17.2188V29.2188C17.2188 28.8302 17.5333 28.5156 17.9219 28.5156H32.0781C32.4667 28.5156 32.7812 28.8302 32.7812 29.2188V34.8906C32.7812 35.2792 32.4667 35.5938 32.0781 35.5938H24.2969V37H36.2969C36.6855 37 37 36.6855 37 36.2969C37 35.9083 36.6855 35.5938 36.2969 35.5938Z" fill="white"/>
<path d="M36.2969 17.2656H13.7031C13.3145 17.2656 13 17.5802 13 17.9688V20.0781H37V17.9688C37 17.5802 36.6855 17.2656 36.2969 17.2656Z" fill="white"/>
<path d="M16.5156 13C16.127 13 15.8125 13.3145 15.8125 13.7031V15.8594H34.1875V13.7031C34.1875 13.3145 33.873 13 33.4844 13H16.5156Z" fill="white"/>
<path d="M14.8281 25.7031C15.8378 25.7031 16.6562 24.8847 16.6562 23.875V21.4844H13V23.875C13 24.8847 13.8184 25.7031 14.8281 25.7031Z" fill="white"/>
<path d="M21.7656 23.875V21.4844H18.0625V23.875C18.0625 24.8847 18.9278 25.7031 19.9375 25.7031C20.9472 25.7031 21.7656 24.8847 21.7656 23.875Z" fill="white"/>
<path d="M26.8281 23.875V21.4844H23.1719V23.875C23.1719 24.8847 23.9903 25.7031 25 25.7031C26.0097 25.7031 26.8281 24.8847 26.8281 23.875Z" fill="white"/>
<path d="M31.9375 23.875V21.4844H28.2344V23.875C28.2344 24.8847 29.0997 25.7031 30.1094 25.7031C31.1191 25.7031 31.9375 24.8847 31.9375 23.875Z" fill="white"/>
<path d="M33.3438 23.875C33.3438 24.8847 34.1622 25.7031 35.1719 25.7031C36.1816 25.7031 37 24.8847 37 23.875V21.4844H33.3438V23.875Z" fill="white"/>
</svg>
