<svg width="50" height="66" viewBox="0 0 50 66" fill="none" xmlns="http://www.w3.org/2000/svg">
<rect x="0.5" y="0.5" width="49" height="49" rx="5.5" fill="#EEEEEE" stroke="#676AC6"/>
<path d="M7.09195 55.64H8.00195V55.98C8.00195 57.6 6.45195 58.85 4.40195 59.16L4.00195 58.34C5.79195 58.1 7.09195 57.06 7.09195 55.98V55.64ZM7.38195 55.64H8.28195V55.98C8.28195 57.06 9.59195 58.1 11.372 58.34L10.982 59.16C8.92195 58.85 7.38195 57.6 7.38195 55.98V55.64ZM7.14195 60.41H8.18195V63.83H7.14195V60.41ZM3.56195 59.82H11.822V60.67H3.56195V59.82ZM4.31195 55.21H11.042V56.05H4.31195V55.21ZM14.5812 56.95H15.4012V57.6C15.4012 59.52 14.4512 61.37 12.9112 62.1L12.3312 61.29C13.7412 60.63 14.5812 59.08 14.5812 57.6V56.95ZM14.8012 56.95H15.6112V57.6C15.6112 58.99 16.4112 60.47 17.7712 61.14L17.2012 61.93C15.6912 61.21 14.8012 59.42 14.8012 57.6V56.95ZM12.6112 56.23H17.5512V57.07H12.6112V56.23ZM14.5712 54.88H15.6212V56.68H14.5712V54.88ZM18.4912 54.69H19.5412V63.83H18.4912V54.69ZM19.3012 58.35H20.9612V59.22H19.3012V58.35ZM23.5104 55.69H24.3704V56.35C24.3704 58.06 23.4404 59.54 21.8004 60.1L21.2804 59.27C22.7104 58.78 23.5104 57.6 23.5104 56.35V55.69ZM23.7104 55.69H24.5604V56.35C24.5604 57.48 25.3204 58.54 26.7204 58.99L26.2204 59.81C24.6004 59.29 23.7104 57.93 23.7104 56.35V55.69ZM21.5704 55.34H26.4804V56.18H21.5704V55.34ZM27.4404 54.69H28.4904V60.16H27.4404V54.69ZM28.2004 56.91H29.7804V57.78H28.2004V56.91ZM25.5504 60.37C27.4204 60.37 28.5904 61.01 28.5904 62.09C28.5904 63.18 27.4204 63.82 25.5504 63.82C23.6704 63.82 22.5004 63.18 22.5004 62.09C22.5004 61.01 23.6704 60.37 25.5504 60.37ZM25.5504 61.2C24.2804 61.2 23.5404 61.51 23.5404 62.09C23.5404 62.68 24.2804 63 25.5504 63C26.8204 63 27.5504 62.68 27.5504 62.09C27.5504 61.51 26.8204 61.2 25.5504 61.2ZM35.1696 56.99H37.0796V57.85H35.1696V56.99ZM36.7796 54.69H37.8296V60.13H36.7796V54.69ZM34.7796 60.37C36.6896 60.37 37.8596 61.02 37.8596 62.1C37.8596 63.2 36.6896 63.83 34.7796 63.83C32.8696 63.83 31.6996 63.2 31.6996 62.1C31.6996 61.02 32.8696 60.37 34.7796 60.37ZM34.7796 61.18C33.4896 61.18 32.7396 61.5 32.7396 62.1C32.7396 62.7 33.4896 63.02 34.7796 63.02C36.0796 63.02 36.8196 62.7 36.8196 62.1C36.8196 61.5 36.0796 61.18 34.7796 61.18ZM32.4896 55.61H33.3396V56.28C33.3396 57.99 32.4096 59.5 30.7896 60.08L30.2496 59.25C31.6796 58.75 32.4896 57.53 32.4896 56.28V55.61ZM32.6996 55.61H33.5396V56.27C33.5396 57.41 34.3196 58.54 35.6896 59.01L35.1696 59.84C33.5896 59.29 32.6996 57.85 32.6996 56.27V55.61ZM30.5496 55.31H35.4496V56.15H30.5496V55.31ZM39.1588 61.85H47.4388V62.71H39.1588V61.85ZM42.7588 59.77H43.7988V62.08H42.7588V59.77ZM40.0788 55.31H41.1288V56.84H45.4388V55.31H46.4788V60.02H40.0788V55.31ZM41.1288 57.67V59.17H45.4388V57.67H41.1288Z" fill="#3D3D3D"/>
<path d="M32.8438 16.2188H32.1406V17.625H32.8438C33.2314 17.625 33.5469 17.3095 33.5469 16.9219C33.5469 16.5342 33.2314 16.2188 32.8438 16.2188Z" fill="#3D3D3D"/>
<path d="M29.2344 36C28.0714 36 27.125 35.0536 27.125 33.8906C27.125 32.7277 28.0714 31.7812 29.2344 31.7812C30.3973 31.7812 31.3438 32.7277 31.3438 33.8906C31.3438 35.0536 30.3973 36 29.2344 36Z" fill="#3D3D3D"/>
<path d="M19.1562 36C17.9933 36 17.0469 35.0536 17.0469 33.8906C17.0469 32.7277 17.9933 31.7812 19.1562 31.7812C20.3192 31.7812 21.2656 32.7277 21.2656 33.8906C21.2656 35.0536 20.3192 36 19.1562 36Z" fill="#3D3D3D"/>
<path d="M29.5578 24.6844C29.0694 23.5852 27.9767 22.875 26.7739 22.875H24.7812V27.0938H30.6289L29.5578 24.6844Z" fill="#3D3D3D"/>
<path d="M23.375 22.875H21.148C19.9452 22.875 18.8525 23.5852 18.3641 24.6844L17.2934 27.0938H23.3755L23.375 22.875Z" fill="#3D3D3D"/>
<path d="M32.375 12C29.2733 12 26.75 14.5233 26.75 17.625C26.75 20.4886 28.9011 22.8591 31.6719 23.2059V27.1931C32.1683 27.2897 32.6403 27.4542 33.0781 27.6769V23.2059C35.8489 22.8591 38 20.4886 38 17.625C38 14.5233 35.4767 12 32.375 12ZM32.8438 19.0312H32.1406V19.7344C32.1406 20.123 31.8261 20.4375 31.4375 20.4375C31.0489 20.4375 30.7344 20.123 30.7344 19.7344V15.5156C30.7344 15.127 31.0489 14.8125 31.4375 14.8125H32.8438C34.0067 14.8125 34.9531 15.7589 34.9531 16.9219C34.9531 18.0848 34.0067 19.0312 32.8438 19.0312Z" fill="#3D3D3D"/>
<path d="M32.9844 30.8438C32.5958 30.8438 32.2812 30.5292 32.2812 30.1406C32.2812 29.752 32.5958 29.4375 32.9844 29.4375H33.207C32.5137 28.853 31.6184 28.5 30.6406 28.5H16.5781C15.1541 28.5 14 29.6541 14 31.0781V33.4219C14 33.8105 14.3145 34.125 14.7031 34.125H15.6491C15.6439 34.0472 15.6406 33.9694 15.6406 33.8906C15.6406 31.9519 17.2175 30.375 19.1562 30.375C21.095 30.375 22.6719 31.9519 22.6719 33.8906C22.6719 33.9694 22.6686 34.0472 22.6634 34.125H25.7277C25.7225 34.0472 25.7192 33.9694 25.7192 33.8906C25.7192 31.9519 27.2961 30.375 29.2348 30.375C31.1736 30.375 32.7505 31.9519 32.7505 33.8906C32.7505 33.9694 32.7472 34.0472 32.742 34.125H33.9223C34.3109 34.125 34.6255 33.8105 34.6255 33.4219V32.4844C34.6255 31.8994 34.4984 31.3444 34.2716 30.8438H32.9844Z" fill="#3D3D3D"/>
</svg>
