<svg width="50" height="66" viewBox="0 0 50 66" fill="none" xmlns="http://www.w3.org/2000/svg">
<rect width="50" height="50" rx="6" fill="#EEEEEE"/>
<path d="M4.03195 55.45H8.36195V59.78H4.03195V55.45ZM7.34195 56.29H5.05195V58.94H7.34195V56.29ZM10.042 54.7H11.092V61.23H10.042V54.7ZM5.12195 62.73H11.352V63.58H5.12195V62.73ZM5.12195 60.62H6.17195V63.09H5.12195V60.62ZM16.6512 60.36C18.5212 60.36 19.6912 61 19.6912 62.09C19.6912 63.19 18.5212 63.83 16.6512 63.83C14.7712 63.83 13.6012 63.19 13.6012 62.09C13.6012 61 14.7712 60.36 16.6512 60.36ZM16.6512 61.19C15.3812 61.19 14.6412 61.5 14.6412 62.09C14.6412 62.69 15.3812 63.01 16.6512 63.01C17.9212 63.01 18.6512 62.69 18.6512 62.09C18.6512 61.5 17.9212 61.19 16.6512 61.19ZM18.5412 54.69H19.5912V60.13H18.5412V54.69ZM19.3012 56.91H20.8812V57.78H19.3012V56.91ZM12.7812 55.27H13.8212V56.53H16.0512V55.27H17.0812V59.52H12.7812V55.27ZM13.8212 57.35V58.69H16.0512V57.35H13.8212ZM24.3304 55.09C25.7004 55.09 26.6904 55.87 26.6904 57C26.6904 58.13 25.7004 58.92 24.3304 58.92C22.9604 58.92 21.9704 58.13 21.9704 57C21.9704 55.87 22.9604 55.09 24.3304 55.09ZM24.3304 55.95C23.5404 55.95 22.9804 56.36 22.9804 57C22.9804 57.65 23.5404 58.05 24.3304 58.05C25.1204 58.05 25.6904 57.65 25.6904 57C25.6904 56.36 25.1204 55.95 24.3304 55.95ZM23.8504 59.89H24.9004V63.55H23.8504V59.89ZM27.8704 54.69H28.9104V63.83H27.8704V54.69ZM21.4904 60.45L21.3604 59.58C23.0104 59.58 25.3004 59.56 27.2804 59.26L27.3504 60.03C25.3204 60.42 23.1204 60.44 21.4904 60.45ZM32.5796 55.44H33.4396V56.94C33.4396 59.15 32.4496 61.18 30.8096 61.98L30.1796 61.11C31.6396 60.45 32.5796 58.69 32.5796 56.94V55.44ZM32.7796 55.44H33.6296V56.94C33.6296 58.62 34.5596 60.3 35.9996 60.94L35.3796 61.78C33.7696 61.02 32.7796 59.07 32.7796 56.94V55.44ZM36.7296 54.68H37.7796V63.84H36.7296V54.68ZM43.8288 56.2H46.1288V57.05H43.8288V56.2ZM45.6788 54.69H46.7288V59.37H45.6788V54.69ZM40.7788 59.8H46.7288V62.11H41.8288V63.39H40.7988V61.34H45.6888V60.62H40.7788V59.8ZM40.7988 62.89H47.0288V63.72H40.7988V62.89ZM41.3488 54.98H42.1988V55.75C42.1988 57.45 41.2788 58.87 39.6588 59.42L39.1188 58.59C40.5588 58.13 41.3488 57 41.3488 55.75V54.98ZM41.5388 54.98H42.3888V55.75C42.3888 56.89 43.1788 57.97 44.5488 58.41L44.0088 59.22C42.4488 58.69 41.5388 57.34 41.5388 55.75V54.98Z" fill="#3D3D3D"/>
<path d="M33.0616 16.81L31.9778 17.8652L37 22.7828V20.6627L33.0616 16.81Z" fill="#3D3D3D"/>
<path d="M16.9384 16.81L13 20.6627V22.7828L18.0222 17.8652L16.9384 16.81Z" fill="#3D3D3D"/>
<path d="M25.7031 26.4531V37H29.9219V26.4531H25.7031ZM28.5156 29.2656H27.1094V27.8594H28.5156V29.2656Z" fill="#3D3D3D"/>
<path d="M20.0781 26.4531V37H24.2969V26.4531H20.0781ZM22.8906 29.2656H21.4844V27.8594H22.8906V29.2656Z" fill="#3D3D3D"/>
<path d="M25 13L20.035 17.8619L22.5428 20.3036L25 17.9763L27.4572 20.3036L29.965 17.8619L25 13Z" fill="#3D3D3D"/>
<path d="M30.97 18.8463L27.4708 22.2531L25 19.9131L22.5292 22.2531L19.03 18.8463L13 24.7511V37H18.6719V34.1875H17.2656V32.7813H18.6719V27.8594H17.2656V26.4531H18.6719V25.0469H31.3281V26.4531H32.7344V27.8594H31.3281V32.7813H32.7344V34.1875H31.3281V37H37V24.7511L30.97 18.8463Z" fill="#3D3D3D"/>
</svg>
