<svg width="54" height="66" viewBox="0 0 54 66" fill="none" xmlns="http://www.w3.org/2000/svg">
<rect x="2.5" y="0.5" width="49" height="49" rx="5.5" fill="#EEEEEE" stroke="#676AC6"/>
<path d="M0.622344 55.58H6.00234V56.42H0.622344V55.58ZM3.31234 56.81C4.62234 56.81 5.52234 57.47 5.52234 58.48C5.52234 59.48 4.62234 60.13 3.31234 60.13C2.00234 60.13 1.09234 59.48 1.09234 58.48C1.09234 57.47 2.00234 56.81 3.31234 56.81ZM3.31234 57.61C2.59234 57.61 2.10234 57.93 2.10234 58.48C2.10234 59.01 2.59234 59.34 3.31234 59.34C4.03234 59.34 4.52234 59.01 4.52234 58.48C4.52234 57.93 4.03234 57.61 3.31234 57.61ZM6.69234 54.69H7.74234V60.41H6.69234V54.69ZM7.45234 57.14H9.03234V58H7.45234V57.14ZM1.73234 60.86H7.74234V63.83H6.69234V61.7H1.73234V60.86ZM2.79234 54.64H3.83234V56.06H2.79234V54.64ZM12.0016 59.33H13.0516V61.35H12.0016V59.33ZM16.0316 54.69H17.0816V61.63H16.0316V54.69ZM10.6916 62.8H17.2916V63.65H10.6916V62.8ZM10.6916 60.96H11.7416V63.03H10.6916V60.96ZM9.60156 59.68L9.46156 58.83C11.1416 58.83 13.3916 58.81 15.3216 58.56L15.3916 59.32C13.4316 59.64 11.2516 59.68 9.60156 59.68ZM14.2316 60.05H16.2816V60.79H14.2316V60.05ZM12.4216 55.04C13.7516 55.04 14.6816 55.68 14.6816 56.65C14.6816 57.62 13.7516 58.25 12.4216 58.25C11.0816 58.25 10.1616 57.62 10.1616 56.65C10.1616 55.68 11.0816 55.04 12.4216 55.04ZM12.4216 55.81C11.6716 55.81 11.1516 56.12 11.1516 56.65C11.1516 57.17 11.6716 57.48 12.4216 57.48C13.1616 57.48 13.6816 57.17 13.6816 56.65C13.6816 56.12 13.1616 55.81 12.4216 55.81ZM18.8808 55.26H23.2108V59.05H18.8808V55.26ZM22.1908 56.09H19.9008V58.23H22.1908V56.09ZM24.8908 54.69H25.9408V59.91H24.8908V54.69ZM22.4208 61.03H23.3208V61.18C23.3208 62.49 21.8608 63.57 19.7908 63.8L19.4508 63.01C21.2208 62.83 22.4208 61.98 22.4208 61.18V61.03ZM22.5908 61.03H23.5008V61.18C23.5008 61.95 24.6908 62.82 26.4508 63.01L26.1008 63.8C24.0308 63.57 22.5908 62.45 22.5908 61.18V61.03ZM19.8108 60.47H26.1108V61.27H19.8108V60.47ZM22.4308 59.65H23.5008V60.84H22.4308V59.65ZM28.14 55.54H33.97V56.39H28.14V55.54ZM27.31 61.77H35.57V62.63H27.31V61.77ZM29.2 58.82H30.24V62.06H29.2V58.82ZM33.66 55.54H34.7V56.5C34.7 57.64 34.7 58.86 34.38 60.63L33.34 60.52C33.66 58.85 33.66 57.61 33.66 56.5V55.54ZM31.46 58.82H32.49V62.06H31.46V58.82ZM37.2092 60.17H38.2492V61.1H42.3592V60.17H43.3992V63.72H37.2092V60.17ZM38.2492 61.89V62.89H42.3592V61.89H38.2492ZM36.1992 58.78H44.4592V59.61H36.1992V58.78ZM39.7992 54.79H40.6992V55.14C40.6992 56.73 39.1092 57.95 37.0192 58.24L36.6392 57.42C38.4692 57.19 39.7992 56.19 39.7992 55.14V54.79ZM39.9692 54.79H40.8692V55.14C40.8692 56.18 42.2092 57.19 44.0192 57.42L43.6392 58.24C41.5592 57.95 39.9692 56.71 39.9692 55.14V54.79ZM45.1084 61.83H53.3884V62.69H45.1084V61.83ZM48.6784 59.7H49.7184V62.09H48.6784V59.7ZM48.6484 55.25H49.5584V55.94C49.5584 57.89 47.8884 59.48 45.8084 59.89L45.3684 59.02C47.1884 58.71 48.6484 57.34 48.6484 55.94V55.25ZM48.8384 55.25H49.7584V55.94C49.7584 57.36 51.2184 58.71 53.0384 59.02L52.5984 59.89C50.5084 59.48 48.8384 57.9 48.8384 55.94V55.25Z" fill="#3D3D3D"/>
<path d="M23.271 34.1238C22.5372 34.1238 21.8724 33.8336 21.3803 33.3642C21.2421 33.6373 21.1644 33.9531 21.1644 34.2774V37H25.3776V34.2774C25.3776 33.9531 25.2999 33.6373 25.1618 33.3642C24.6697 33.8336 24.0049 34.1238 23.271 34.1238ZM28.4512 34.1238C27.7173 34.1238 27.0526 33.8336 26.5604 33.3642C26.4223 33.6373 26.3446 33.9531 26.3446 34.2774V37H30.5578V34.2774C30.5578 33.9531 30.4801 33.6373 30.342 33.3642C29.8498 33.8336 29.1851 34.1238 28.4512 34.1238ZM34.1149 34.1238C33.3033 34.1238 32.5608 33.7653 32.0601 33.202C31.7233 33.6287 31.5248 34.175 31.5248 34.7639V37H36.2215C36.4891 37 36.705 36.7866 36.705 36.522V34.7639C36.705 34.175 36.5064 33.6287 36.1697 33.202C35.6689 33.7653 34.9351 34.1238 34.1149 34.1238ZM17.6074 34.1238C16.7872 34.1238 16.0533 33.7653 15.5526 33.202C15.2158 33.6287 15.0173 34.175 15.0173 34.7639V36.522C15.0173 36.7866 15.2331 37 15.5008 37H20.1974V34.7639C20.1974 34.175 19.9989 33.6287 19.6622 33.202C19.1614 33.7653 18.4276 34.1238 17.6074 34.1238ZM23.4351 24.8378V26.7582H37.5165C37.7842 26.7582 38 26.5448 38 26.2802V24.8378H23.4351Z" fill="#3D3D3D"/>
<path d="M21.8119 17.9587C21.8119 19.2902 20.7241 20.357 19.3859 20.357C18.0477 20.357 16.9598 19.2816 16.9598 17.9587C16.9598 16.6358 18.0477 15.5605 19.3859 15.5605C20.7241 15.5605 21.8119 16.6358 21.8119 17.9587Z" fill="#3D3D3D"/>
<path d="M22.7875 17.9587C22.7875 18.1209 22.7703 18.2831 22.7444 18.4367H23.2365L24.2812 17.404C25.6539 16.0384 28.1145 16.8578 28.3908 18.7525H33.6314C33.899 18.7525 34.1149 18.9659 34.1149 19.2304C34.1149 19.495 33.899 19.7084 33.6314 19.7084H28.3303C28.2354 20.0583 28.0627 20.3912 27.8123 20.6728H33.6314C33.899 20.6728 34.1149 20.8862 34.1149 21.1508C34.1149 21.4154 33.899 21.6287 33.6314 21.6287H26.8626L25.6712 22.8065C25.4035 23.0797 25.0236 23.2333 24.6438 23.2333H23.4351V23.8734H36.0574V13.478C36.0574 13.2134 35.8416 13 35.5739 13H19.3859C19.1182 13 18.9024 13.2134 18.9024 13.478V14.6387C19.0664 14.6131 19.2218 14.596 19.3859 14.596C21.268 14.596 22.7875 16.0982 22.7875 17.9587ZM34.1149 17.3186C34.1149 17.5832 33.899 17.7966 33.6314 17.7966H29.0987C28.8311 17.7966 28.6152 17.5832 28.6152 17.3186C28.6152 17.0541 28.8311 16.8407 29.0987 16.8407H33.6314C33.899 16.8407 34.1149 17.0541 34.1149 17.3186ZM23.271 14.9203H32.3363C32.604 14.9203 32.8198 15.1337 32.8198 15.3983C32.8198 15.6629 32.604 15.8762 32.3363 15.8762H23.271C23.0034 15.8762 22.7875 15.6629 22.7875 15.3983C22.7875 15.1337 23.0034 14.9203 23.271 14.9203Z" fill="#3D3D3D"/>
<path d="M16.9598 28.6785V23.0797C16.9598 22.8151 17.1757 22.6017 17.4433 22.6017C17.711 22.6017 17.9268 22.8151 17.9268 23.0797V28.6785H21.976C22.2436 28.6785 22.4595 28.4651 22.4595 28.2006V22.2774H24.6438C24.7733 22.2774 24.8941 22.2262 24.9891 22.1408L27.0267 20.1266C27.5792 19.5804 27.5965 18.6415 27.0267 18.0868C26.4741 17.5405 25.5158 17.5405 24.9632 18.0868L23.6336 19.4011H22.4508C21.9069 20.5448 20.7327 21.3215 19.3773 21.3215C18.1944 21.3215 17.1498 20.724 16.5454 19.8108C15.6216 20.3314 15 21.3129 15 22.4395V28.2006C15 28.4651 15.2158 28.6785 15.4835 28.6785H16.9598Z" fill="#3D3D3D"/>
<path d="M19.3859 31.4011C19.3859 32.3741 18.5916 33.1593 17.6074 33.1593C16.6231 33.1593 15.8288 32.3741 15.8288 31.4011C15.8288 30.4282 16.6231 29.643 17.6074 29.643C18.5916 29.643 19.3859 30.4282 19.3859 31.4011Z" fill="#3D3D3D"/>
<path d="M25.0495 31.4011C25.0495 32.3741 24.2553 33.1593 23.271 33.1593C22.2868 33.1593 21.4925 32.3741 21.4925 31.4011C21.4925 30.4282 22.2868 29.643 23.271 29.643C24.2553 29.643 25.0495 30.4282 25.0495 31.4011Z" fill="#3D3D3D"/>
<path d="M30.2297 31.4011C30.2297 32.3741 29.4354 33.1593 28.4512 33.1593C27.467 33.1593 26.6727 32.3741 26.6727 31.4011C26.6727 30.4282 27.467 29.643 28.4512 29.643C29.4354 29.643 30.2297 30.4282 30.2297 31.4011Z" fill="#3D3D3D"/>
<path d="M35.902 31.4011C35.902 32.3741 35.1077 33.1593 34.1235 33.1593C33.1393 33.1593 32.345 32.3741 32.345 31.4011C32.345 30.4282 33.1393 29.643 34.1235 29.643C35.1077 29.643 35.902 30.4282 35.902 31.4011Z" fill="#3D3D3D"/>
</svg>
