<svg width="109" height="42" viewBox="0 0 109 42" fill="none" xmlns="http://www.w3.org/2000/svg">
<rect width="109" height="42" rx="6" fill="white"/>
<path d="M47.496 15.27H51.304V16.46H47.496V15.27ZM47.496 18.35H51.304V19.54H47.496V18.35ZM50.772 13.38H52.242V22.788H50.772V13.38ZM43.954 24.72H52.564V25.91H43.954V24.72ZM43.954 21.836H45.41V25.294H43.954V21.836ZM45.144 14.164C47.034 14.164 48.476 15.508 48.476 17.412C48.476 19.302 47.034 20.66 45.144 20.66C43.254 20.66 41.812 19.302 41.812 17.412C41.812 15.508 43.254 14.164 45.144 14.164ZM45.144 15.452C44.038 15.452 43.212 16.236 43.212 17.412C43.212 18.588 44.038 19.372 45.144 19.372C46.25 19.372 47.076 18.588 47.076 17.412C47.076 16.236 46.25 15.452 45.144 15.452ZM59.4649 16.838H62.1949V18.014H59.4649V16.838ZM59.3809 20.044H62.1529V21.22H59.3809V20.044ZM64.0429 13.366H65.4569V26.162H64.0429V13.366ZM61.4529 13.674H62.8249V25.546H61.4529V13.674ZM58.5829 14.934H59.9969C59.9969 18.406 58.7649 21.374 55.2649 23.446L54.4249 22.41C57.3789 20.632 58.5829 18.266 58.5829 15.214V14.934ZM55.0689 14.934H59.1149V16.124H55.0689V14.934ZM74.2758 16.586H76.9498V17.79H74.2758V16.586ZM76.5298 13.366H77.9998V20.982H76.5298V13.366ZM73.7298 21.318C76.4038 21.318 78.0418 22.228 78.0418 23.74C78.0418 25.28 76.4038 26.162 73.7298 26.162C71.0558 26.162 69.4178 25.28 69.4178 23.74C69.4178 22.228 71.0558 21.318 73.7298 21.318ZM73.7298 22.452C71.9238 22.452 70.8738 22.9 70.8738 23.74C70.8738 24.58 71.9238 25.028 73.7298 25.028C75.5498 25.028 76.5858 24.58 76.5858 23.74C76.5858 22.9 75.5498 22.452 73.7298 22.452ZM70.5238 14.654H71.7138V15.592C71.7138 17.986 70.4118 20.1 68.1438 20.912L67.3878 19.75C69.3898 19.05 70.5238 17.342 70.5238 15.592V14.654ZM70.8178 14.654H71.9938V15.578C71.9938 17.174 73.0858 18.756 75.0038 19.414L74.2758 20.576C72.0638 19.806 70.8178 17.79 70.8178 15.578V14.654ZM67.8078 14.234H74.6678V15.41H67.8078V14.234ZM80.2807 23.39H91.8727V24.594H80.2807V23.39ZM85.3207 20.478H86.7767V23.712H85.3207V20.478ZM81.5687 14.234H83.0387V16.376H89.0727V14.234H90.5287V20.828H81.5687V14.234ZM83.0387 17.538V19.638H89.0727V17.538H83.0387Z" fill="#3D3D3D"/>
<path d="M21.9739 22.5505C21.0321 22.5505 20.1468 22.1839 19.4808 21.5178C19.1997 21.2368 19.1997 20.7813 19.4808 20.5006C19.7618 20.2198 20.2173 20.2195 20.498 20.5006C20.8921 20.8946 21.4163 21.1118 21.9739 21.1118C22.5315 21.1118 23.0554 20.8946 23.4498 20.5006L27.9502 16.0002C28.3443 15.6061 28.5615 15.0819 28.5615 14.5243C28.5615 13.9667 28.3443 13.4428 27.9502 13.0484C27.1364 12.2347 25.8121 12.2347 24.9984 13.0484L21.4904 16.5564C21.2093 16.8375 20.7538 16.8375 20.4731 16.5564C20.1924 16.2753 20.192 15.8198 20.4731 15.5391L23.9811 12.0311C25.356 10.6563 27.5926 10.6563 28.9675 12.0311C29.6335 12.6971 30.0002 13.5825 30.0002 14.5243C30.0002 15.4661 29.6335 16.3515 28.9675 17.0175L24.4671 21.5178C23.8011 22.1839 22.9158 22.5505 21.9739 22.5505Z" fill="#3D3D3D"/>
<path d="M15.5243 29.0002C14.5825 29.0002 13.6971 28.6335 13.0311 27.9675C11.6563 26.5926 11.6563 24.356 13.0311 22.9811L17.4964 18.5158C18.8712 17.141 21.1079 17.141 22.4827 18.5158C22.7638 18.7969 22.7638 19.2524 22.4827 19.5331C22.2017 19.8138 21.7462 19.8142 21.4655 19.5331C20.6517 18.7194 19.3274 18.7194 18.5137 19.5331L14.0484 23.9984C13.2347 24.8121 13.2347 26.1364 14.0484 26.9502C14.4425 27.3443 14.9667 27.5615 15.5243 27.5615C16.0819 27.5615 16.6058 27.3443 17.0002 26.9502L20.4731 23.4773C20.7542 23.1966 21.2097 23.1966 21.4904 23.4773C21.7715 23.7584 21.7715 24.2138 21.4904 24.4946L18.0175 27.9675C17.3515 28.6335 16.4661 29.0002 15.5243 29.0002Z" fill="#3D3D3D"/>
<path d="M15.8942 18.3643C15.7924 18.3643 15.6889 18.3425 15.5906 18.2965L14.319 17.7035C13.9589 17.5358 13.8031 17.1077 13.9709 16.7476C14.1386 16.3876 14.5667 16.2318 14.9267 16.3995L16.1984 16.9926C16.5584 17.1603 16.7142 17.5884 16.5465 17.9484C16.4244 18.2102 16.1651 18.3643 15.8942 18.3643Z" fill="#3D3D3D"/>
<path d="M27.3403 23.7019C27.2386 23.7019 27.135 23.6801 27.0368 23.6341L25.7651 23.0411C25.4051 22.873 25.2493 22.4453 25.417 22.0853C25.5851 21.7252 26.0128 21.5694 26.3729 21.7372L27.6446 22.3302C28.0046 22.4983 28.1604 22.926 27.9927 23.286C27.8705 23.5478 27.6112 23.7019 27.3403 23.7019Z" fill="#3D3D3D"/>
<path d="M18.6102 15.6493C18.3393 15.6493 18.0799 15.4956 17.9578 15.2338L17.3648 13.9622C17.1967 13.6021 17.3525 13.174 17.7129 13.0063C18.0729 12.8382 18.501 12.994 18.6688 13.3544L19.2618 14.6261C19.4299 14.9861 19.2741 15.4142 18.9137 15.5819C18.8154 15.6279 18.7119 15.6493 18.6102 15.6493Z" fill="#3D3D3D"/>
<path d="M23.9474 27.0955C23.6765 27.0955 23.4172 26.9418 23.2951 26.68L22.7021 25.4083C22.534 25.0483 22.6898 24.6202 23.0502 24.4525C23.4102 24.2844 23.8383 24.4402 24.006 24.8006L24.5991 26.0722C24.7671 26.4323 24.6113 26.8604 24.251 27.0281C24.1527 27.0741 24.0492 27.0955 23.9474 27.0955Z" fill="#3D3D3D"/>
</svg>
