<svg width="50" height="66" viewBox="0 0 50 66" fill="none" xmlns="http://www.w3.org/2000/svg">
<rect x="0.5" y="0.5" width="49" height="49" rx="5.5" fill="#EEEEEE" stroke="#676AC6"/>
<path d="M35.703 35.5938V13H31.7664L26.5277 18.4881V35.5938H25.1214V19.7383L19.8902 25.2184V35.5938H16.3042V34.1059C17.3983 33.7984 18.2027 32.7925 18.2027 31.6019C18.2027 30.1675 17.0355 29.0003 15.6011 29.0003C14.1667 29.0003 13 30.167 13 31.6014C13 32.792 13.8044 33.798 14.8984 34.1055V35.5933H13V36.9995H37V35.5933H35.703V35.5938ZM23.2117 33.0002H21.8055V31H23.2117V33.0002ZM23.2117 28.5002H21.8055V26.5H23.2117V28.5002ZM30.49 33.0002H29.0837V31H30.49V33.0002ZM30.49 28.5002H29.0837V26.5H30.49V28.5002ZM30.49 24.0002H29.0837V22H30.49V24.0002ZM33.1478 33.0002H31.7416V31H33.1478V33.0002ZM33.1478 28.5002H31.7416V26.5H33.1478V28.5002ZM33.1478 24.0002H31.7416V22H33.1478V24.0002ZM33.1478 19.5002H31.7416V17.5H33.1478V19.5002Z" fill="#3D3D3D"/>
<path d="M4.42195 55.54H10.262V56.39H4.42195V55.54ZM3.56195 61.77H11.822V62.63H3.56195V61.77ZM6.64195 58.56H7.69195V62.2H6.64195V58.56ZM9.87195 55.54H10.922V56.43C10.922 57.57 10.922 58.84 10.572 60.73L9.52195 60.61C9.87195 58.83 9.87195 57.53 9.87195 56.43V55.54ZM19.2712 55.95H20.8512V56.81H19.2712V55.95ZM19.2712 57.91H20.8512V58.77H19.2712V57.91ZM15.0012 55.21C16.3912 55.21 17.4312 56.11 17.4312 57.4C17.4312 58.67 16.3912 59.57 15.0012 59.57C13.6112 59.57 12.5812 58.67 12.5812 57.4C12.5812 56.11 13.6112 55.21 15.0012 55.21ZM15.0012 56.09C14.1912 56.09 13.6012 56.61 13.6012 57.4C13.6012 58.19 14.1912 58.69 15.0012 58.69C15.8112 58.69 16.4112 58.19 16.4112 57.4C16.4112 56.61 15.8112 56.09 15.0012 56.09ZM18.5412 54.69H19.5912V60.07H18.5412V54.69ZM16.6512 60.31C18.5212 60.31 19.6912 60.97 19.6912 62.07C19.6912 63.17 18.5212 63.82 16.6512 63.82C14.7712 63.82 13.6012 63.17 13.6012 62.07C13.6012 60.97 14.7712 60.31 16.6512 60.31ZM16.6512 61.15C15.3812 61.15 14.6412 61.47 14.6412 62.07C14.6412 62.67 15.3812 62.99 16.6512 62.99C17.9212 62.99 18.6512 62.67 18.6512 62.07C18.6512 61.47 17.9212 61.15 16.6512 61.15ZM23.6804 55.44H24.5404V56.94C24.5404 59.15 23.5504 61.18 21.9104 61.98L21.2804 61.11C22.7404 60.45 23.6804 58.69 23.6804 56.94V55.44ZM23.8804 55.44H24.7304V56.94C24.7304 58.62 25.6604 60.3 27.1004 60.94L26.4804 61.78C24.8704 61.02 23.8804 59.07 23.8804 56.94V55.44ZM27.8304 54.68H28.8804V63.84H27.8304V54.68ZM36.7796 54.69H37.8296V61.41H36.7796V54.69ZM34.9796 57.44H36.9496V58.3H34.9796V57.44ZM33.9296 55.39H35.0296C35.0296 57.79 33.4296 59.59 30.8196 60.44L30.3796 59.6C32.5596 58.89 33.9296 57.53 33.9296 55.84V55.39ZM30.8396 55.39H34.6096V56.24H30.8396V55.39ZM31.9596 62.8H38.0596V63.65H31.9596V62.8ZM31.9596 60.74H33.0096V63.26H31.9596V60.74ZM42.7488 59.04H43.7888V60.39H42.7488V59.04ZM39.1488 58.44H47.4088V59.27H39.1488V58.44ZM40.1988 54.98H46.3488V57.8H40.1988V54.98ZM45.3188 55.8H41.2288V56.98H45.3188V55.8ZM40.1288 60.02H46.3788V62.21H41.1788V63.18H40.1388V61.46H45.3488V60.81H40.1288V60.02ZM40.1388 62.94H46.6388V63.75H40.1388V62.94Z" fill="#3D3D3D"/>
</svg>
