<svg width="50" height="66" viewBox="0 0 50 66" fill="none" xmlns="http://www.w3.org/2000/svg">
<rect x="0.5" y="0.5" width="49" height="49" rx="5.5" fill="#EEEEEE" stroke="#676AC6"/>
<path d="M4.42195 55.54H10.262V56.39H4.42195V55.54ZM3.56195 61.77H11.822V62.63H3.56195V61.77ZM6.64195 58.56H7.69195V62.2H6.64195V58.56ZM9.87195 55.54H10.922V56.43C10.922 57.57 10.922 58.84 10.572 60.73L9.52195 60.61C9.87195 58.83 9.87195 57.53 9.87195 56.43V55.54ZM19.2712 55.95H20.8512V56.81H19.2712V55.95ZM19.2712 57.91H20.8512V58.77H19.2712V57.91ZM15.0012 55.21C16.3912 55.21 17.4312 56.11 17.4312 57.4C17.4312 58.67 16.3912 59.57 15.0012 59.57C13.6112 59.57 12.5812 58.67 12.5812 57.4C12.5812 56.11 13.6112 55.21 15.0012 55.21ZM15.0012 56.09C14.1912 56.09 13.6012 56.61 13.6012 57.4C13.6012 58.19 14.1912 58.69 15.0012 58.69C15.8112 58.69 16.4112 58.19 16.4112 57.4C16.4112 56.61 15.8112 56.09 15.0012 56.09ZM18.5412 54.69H19.5912V60.07H18.5412V54.69ZM16.6512 60.31C18.5212 60.31 19.6912 60.97 19.6912 62.07C19.6912 63.17 18.5212 63.82 16.6512 63.82C14.7712 63.82 13.6012 63.17 13.6012 62.07C13.6012 60.97 14.7712 60.31 16.6512 60.31ZM16.6512 61.15C15.3812 61.15 14.6412 61.47 14.6412 62.07C14.6412 62.67 15.3812 62.99 16.6512 62.99C17.9212 62.99 18.6512 62.67 18.6512 62.07C18.6512 61.47 17.9212 61.15 16.6512 61.15ZM23.6804 55.44H24.5404V56.94C24.5404 59.15 23.5504 61.18 21.9104 61.98L21.2804 61.11C22.7404 60.45 23.6804 58.69 23.6804 56.94V55.44ZM23.8804 55.44H24.7304V56.94C24.7304 58.62 25.6604 60.3 27.1004 60.94L26.4804 61.78C24.8704 61.02 23.8804 59.07 23.8804 56.94V55.44ZM27.8304 54.68H28.8804V63.84H27.8304V54.68ZM34.6396 56.27H36.9496V57.11H34.6396V56.27ZM34.5596 58.16H36.8896V59.01H34.5596V58.16ZM36.7796 54.69H37.8296V60.07H36.7796V54.69ZM33.8696 55.35H34.9796C34.9796 57.76 33.4596 59.39 30.7696 60.16L30.3496 59.33C32.6796 58.69 33.8696 57.43 33.8696 55.83V55.35ZM30.8396 55.35H34.5896V56.19H30.8396V55.35ZM34.8296 60.18C36.6796 60.18 37.8796 60.86 37.8796 61.98C37.8796 63.1 36.6796 63.79 34.8296 63.79C32.9796 63.79 31.7796 63.1 31.7796 61.98C31.7796 60.86 32.9796 60.18 34.8296 60.18ZM34.8296 60.99C33.5896 60.99 32.8096 61.35 32.8096 61.98C32.8096 62.61 33.5896 62.96 34.8296 62.96C36.0796 62.96 36.8496 62.61 36.8496 61.98C36.8496 61.35 36.0796 60.99 34.8296 60.99ZM42.6888 57.17H44.6388V58.01H42.6888V57.17ZM42.6288 59.46H44.6088V60.3H42.6288V59.46ZM45.9588 54.69H46.9688V63.83H45.9588V54.69ZM44.1088 54.91H45.0888V63.39H44.1088V54.91ZM42.0588 55.81H43.0688C43.0688 58.29 42.1888 60.41 39.6888 61.89L39.0888 61.15C41.1988 59.88 42.0588 58.19 42.0588 56.01V55.81ZM39.5488 55.81H42.4388V56.66H39.5488V55.81Z" fill="#3D3D3D"/>
<path d="M21.2036 28.7341H23.0786V37H21.2036V28.7341Z" fill="#3D3D3D"/>
<path d="M13 27.3278H14.1719V28.7341H13V27.3278Z" fill="#3D3D3D"/>
<path d="M26.8291 27.3278H28.0009V28.7341H26.8291V27.3278Z" fill="#3D3D3D"/>
<path d="M26.8291 29.9064L26.8291 28.7341L24.4853 28.7345V37.0005H26.8291V33.8912H29.9688V29.9069L26.8291 29.9064Z" fill="#3D3D3D"/>
<path d="M14.1719 28.7341H16.5156V37H14.1719V28.7341Z" fill="#3D3D3D"/>
<path d="M17.4531 21.4844H23.5473V27.3283L26.8291 27.3278L26.8286 19.3595H28.0005V17.9533H21.2031V16.7191H24.1253V13H19.7969V17.9528H13V19.3591H14.1719L14.1719 27.3278L17.4531 27.3278V21.4844Z" fill="#3D3D3D"/>
<path d="M18.8594 22.8906H22.1411V27.3283H18.8594V22.8906Z" fill="#3D3D3D"/>
<path d="M34.187 29.9064H36.9995V33.8908H34.187V29.9064Z" fill="#3D3D3D"/>
<path d="M17.9219 28.7341H19.7969V37H17.9219V28.7341Z" fill="#3D3D3D"/>
<path d="M31.3745 29.9064H32.7808V33.8908H31.3745V29.9064Z" fill="#3D3D3D"/>
</svg>
