<svg width="50" height="75" viewBox="0 0 50 75" fill="none" xmlns="http://www.w3.org/2000/svg">
<rect x="0.5" y="0.5" width="49" height="49" rx="5.5" fill="#EEEEEE" stroke="#676AC6"/>
<path d="M18.7512 56.47V56.42H13.3612V55.58H19.7912V56.47C19.7912 57.59 19.7912 58.84 19.4412 60.71L18.4012 60.6C18.7512 58.83 18.7512 57.55 18.7512 56.47ZM16.5912 61.74H20.6712V62.59H12.5112V61.74H15.5512V58.56H16.5912V61.74ZM22.5304 57.41C22.5304 58.2 23.1204 58.7 23.9204 58.7C24.7304 58.7 25.3204 58.2 25.3204 57.41C25.3204 56.63 24.7304 56.12 23.9204 56.12C23.1204 56.12 22.5304 56.63 22.5304 57.41ZM26.3304 57.41C26.3304 58.68 25.3004 59.57 23.9204 59.57C22.5504 59.57 21.5204 58.68 21.5204 57.41C21.5204 56.14 22.5504 55.26 23.9204 55.26C25.3004 55.26 26.3304 56.14 26.3304 57.41ZM25.5504 62.95C26.8104 62.95 27.5404 62.63 27.5404 62.04C27.5404 61.44 26.8104 61.12 25.5504 61.12C24.2904 61.12 23.5604 61.44 23.5604 62.04C23.5604 62.63 24.2904 62.95 25.5504 62.95ZM25.5504 60.3C27.4104 60.3 28.5604 60.95 28.5604 62.04C28.5604 63.12 27.4104 63.77 25.5504 63.77C23.7004 63.77 22.5404 63.12 22.5404 62.04C22.5404 60.95 23.7004 60.3 25.5504 60.3ZM29.7104 56.82H28.4604V57.92H29.7104V58.77H28.4604V60.05H27.4304V54.73H28.4604V55.97H29.7104V56.82ZM33.6396 55.49V56.97C33.6396 58.63 34.5596 60.29 35.9796 60.93L35.3796 61.75C34.3396 61.26 33.5496 60.26 33.1396 59.04C32.7296 60.35 31.9296 61.42 30.8396 61.95L30.2296 61.09C31.6696 60.44 32.6096 58.71 32.6096 56.97V55.49H33.6396ZM36.6996 54.73H37.7396V63.79H36.6996V54.73ZM9.85195 67.47V67.42H4.46195V66.58H10.892V67.47C10.892 68.59 10.892 69.84 10.542 71.71L9.50195 71.6C9.85195 69.83 9.85195 68.55 9.85195 67.47ZM7.69195 72.74H11.772V73.59H3.61195V72.74H6.65195V69.56H7.69195V72.74ZM17.3612 68.01H18.9612V65.74H19.9912V71.12H18.9612V68.85H17.3612V68.01ZM17.8812 70.02L17.3712 70.83C16.3712 70.48 15.6512 69.77 15.2712 68.9C14.8712 69.89 14.1112 70.69 13.0412 71.07L12.5112 70.25C13.9112 69.75 14.7212 68.55 14.7212 67.31V67.18H12.8112V66.35H17.6412V67.18H15.7612V67.3C15.7612 68.43 16.5312 69.55 17.8812 70.02ZM16.9912 73.98C18.2612 73.98 19.0012 73.66 19.0012 73.07C19.0012 72.48 18.2612 72.16 16.9912 72.16C15.7012 72.16 14.9712 72.48 14.9712 73.07C14.9712 73.66 15.7012 73.98 16.9912 73.98ZM16.9912 71.36C18.8712 71.36 20.0312 72 20.0312 73.07C20.0312 74.15 18.8712 74.78 16.9912 74.78C15.1012 74.78 13.9412 74.15 13.9412 73.07C13.9412 72 15.1012 71.36 16.9912 71.36ZM28.8504 65.74V70.35H27.8104V65.74H28.8504ZM25.1504 69.15V67.04H22.8804V69.15H25.1504ZM26.1504 66.22V69.97H21.8704V66.22H26.1504ZM23.9604 73.88H29.1204V74.69H22.9404V72.32H27.8304V71.58H22.9204V70.78H28.8504V73.08H23.9604V73.88ZM33.6396 67.49V68.35C33.6396 69.85 34.5696 71.41 35.9796 72.01L35.4096 72.82C34.3596 72.36 33.5496 71.38 33.1296 70.21C32.7296 71.47 31.9196 72.54 30.8596 73.05L30.2696 72.23C31.6696 71.58 32.5996 69.9 32.5996 68.35V67.49H30.5896V66.64H35.6496V67.49H33.6396ZM36.6996 65.74H37.7396V74.77H36.6996V65.74ZM43.7988 72.84H47.3888V73.69H39.2088V72.84H42.7688V70.71H40.2088V66.42H46.3888V67.25H41.2388V69.88H46.4688V70.71H43.7988V72.84Z" fill="#3D3D3D"/>
<g clip-path="url(#clip0_251_409)">
<path d="M37.9996 22.4327V27.0214L31.0229 24.9527C32.1555 23.3437 33.1671 21.6486 34.0477 19.8834L37.1301 21.1284C37.655 21.3403 37.999 21.8575 37.999 22.4327H37.9996ZM21.767 28.3496L29.2821 26.1277V32.302L21.767 35.3218V28.3496ZM29.9086 13.0261C32.0169 13.0297 33.7254 14.7716 33.7289 16.921C33.7289 18.5749 31.3053 22.3992 29.9086 24.4104C28.5059 22.3992 26.0882 18.5749 26.0882 16.921C26.0776 14.7811 27.7597 13.0321 29.8581 13.001L29.908 13.0267L29.9086 13.0261ZM28.7437 24.9527L21.767 27.0214V21.4792L25.7189 19.8828C26.5996 21.6486 27.6112 23.3431 28.7437 24.9521V24.9527ZM20.5147 21.4792V27.0022L13.0184 24.6397V19.6092C13.0184 19.0544 13.5668 18.6743 14.0729 18.8784L20.5147 21.4792ZM12.9996 25.9487L20.5147 28.3305V35.3092L13.8257 32.6258C13.3384 32.4301 13.0172 31.9512 13.0155 31.4173L12.999 25.9493L12.9996 25.9487ZM30.4845 32.3014V26.1271L37.9996 28.349V34.1755C37.9996 34.7196 37.4624 35.0932 36.9651 34.8944L30.4845 32.3014ZM32.3633 16.614C32.3633 15.2037 31.2419 14.0599 29.8581 14.0599C28.4742 14.0599 27.3528 15.2031 27.3528 16.614C27.3528 18.0248 28.4742 19.1681 29.8581 19.1681C31.2413 19.1962 32.385 18.0763 32.4126 16.666C32.4126 16.6445 32.4126 16.6229 32.4126 16.6014L32.3627 16.614H32.3633ZM28.5558 16.614C28.5558 15.9089 29.1165 15.3372 29.8082 15.3372C30.4998 15.3372 31.0605 15.9089 31.0605 16.614C31.0605 17.3191 30.4998 17.8907 29.8082 17.8907C29.1312 17.8632 28.5987 17.2916 28.6058 16.6008L28.5558 16.6134V16.614Z" fill="#3D3D3D"/>
</g>
<defs>
<clipPath id="clip0_251_409">
<rect width="25" height="22.3214" fill="white" transform="translate(13 13)"/>
</clipPath>
</defs>
</svg>
