<svg width="109" height="42" viewBox="0 0 109 42" fill="none" xmlns="http://www.w3.org/2000/svg">
<rect width="109" height="42" rx="6" fill="white"/>
<path d="M50.24 17.818V16.404H44.612V17.818H50.24ZM51.668 13.842V18.952H43.184V13.842H44.612V15.298H50.24V13.842H51.668ZM44.542 22.382V24.664H51.892V25.84H43.1V22.382H44.542ZM41.7 20.016H53.166V21.178H48.266V23.432H46.824V21.178H41.7V20.016ZM62.0409 19.33L61.2709 20.45C59.9129 19.96 58.9049 18.98 58.3729 17.734C57.8129 19.092 56.7769 20.17 55.3209 20.716L54.5649 19.568C56.5529 18.868 57.6309 17.188 57.6309 15.34V14.08H59.0869V15.424C59.0869 17.076 60.1649 18.672 62.0409 19.33ZM56.5389 22.732V21.584H65.0649V26.092H63.6229V22.732H56.5389ZM63.6229 13.422H65.0649V20.94H63.6229V17.132H61.0609V15.942H63.6229V13.422ZM73.8978 23.376H78.9238V24.566H67.4718V23.376H72.4558V20.394H68.8718V14.388H77.5238V15.55H70.3138V19.232H77.6358V20.394H73.8978V23.376ZM91.7887 19.61V20.8H86.7487V26.078H85.2927V20.8H80.3507V19.61H88.5687C88.9327 17.846 88.9327 16.53 88.9327 15.368H81.7227V14.206H90.3467V15.312C90.3467 16.502 90.3467 17.818 90.0247 19.61H91.7887Z" fill="#3D3D3D"/>
<g clip-path="url(#clip0_247_32)">
<path d="M30.1238 11.3002C29.0832 11.3089 28.247 12.1689 28.2556 13.2204C28.2579 13.4922 28.3173 13.76 28.4307 14.0065L27.739 14.7887C23.2185 7.45693 12.038 11.5795 13.3568 20.216L12.2924 20.8742C11.9994 21.0618 11.9118 21.4537 12.0974 21.7503C12.2107 21.9317 12.4073 22.0427 12.6195 22.0458C12.8723 22.0774 13.469 21.6038 13.6843 21.4959C15.1828 26.0981 20.9533 28.2869 25.0949 25.6481L27.8594 28.4434C28.5913 29.1848 29.7791 29.1864 30.513 28.4465C31.2464 27.7066 31.2479 26.5057 30.5161 25.7639C30.5149 25.7627 30.5141 25.7619 30.513 25.7607L27.748 22.9659C28.9949 20.8635 29.2118 18.297 28.3357 16.0113L29.3141 14.9048C30.2476 15.3576 31.3675 14.959 31.8149 14.0152C32.2627 13.0715 31.8685 11.9397 30.935 11.487C30.6818 11.3642 30.4043 11.3006 30.1234 11.3006L30.1238 11.3002ZM14.4939 18.8848C14.5802 11.9378 23.6483 9.75443 26.8583 15.7846L24.27 18.7114C23.567 18.4238 22.7621 18.5893 22.2268 19.1325L20.1109 18.1267C20.2144 17.085 19.463 16.1555 18.4326 16.0504C17.4022 15.9458 16.4828 16.7054 16.3788 17.7471C16.3597 17.9415 16.3699 18.1374 16.4101 18.3286L14.5244 19.4943C14.506 19.2933 14.4939 19.0906 14.4939 18.8852V18.8848ZM22.9895 20.2074C23.1341 19.8898 23.5061 19.7507 23.8202 19.8969C24.0398 19.9992 24.1817 20.2204 24.1844 20.4649C24.1883 20.8145 23.9113 21.1009 23.5655 21.1049C23.2197 21.1088 22.9364 20.8287 22.9325 20.4791C22.9313 20.3855 22.9508 20.2927 22.9899 20.2074H22.9895ZM17.6199 17.9367C17.6249 17.5875 17.909 17.3086 18.254 17.3138C18.5924 17.3189 18.8652 17.5946 18.8702 17.9367C18.8652 18.2859 18.5811 18.5648 18.2361 18.5597C17.8977 18.5545 17.6249 18.2788 17.6199 17.9367ZM29.6287 26.6543C29.8698 26.9051 29.8639 27.3057 29.6162 27.5494C29.3731 27.788 28.9863 27.788 28.7436 27.5494L26.1206 24.8976C26.4386 24.6234 26.7344 24.3244 27.0056 24.0028L29.6287 26.6547V26.6543ZM27.623 18.8848C27.4417 26.5441 17.0994 28.0112 14.7799 20.8181L17.0627 19.407C17.8137 20.0146 18.8956 19.9553 19.5775 19.2696L21.6934 20.2753C21.5898 21.317 22.3409 22.2465 23.3713 22.3516C24.4017 22.4563 25.3211 21.697 25.425 20.6553C25.4629 20.2737 25.3856 19.8898 25.2031 19.5536L27.3745 17.0981C27.5378 17.6795 27.6214 18.2808 27.623 18.8852V18.8848ZM30.1238 13.8284C29.7783 13.8229 29.5029 13.5357 29.5083 13.1865C29.5134 12.8452 29.7862 12.5694 30.1238 12.5643C30.4692 12.5694 30.7447 12.8566 30.7396 13.2058C30.7345 13.5475 30.4618 13.8233 30.1238 13.8284Z" fill="#3D3D3D"/>
</g>
<defs>
<clipPath id="clip0_247_32">
<rect width="20" height="18" fill="white" transform="translate(12 11)"/>
</clipPath>
</defs>
</svg>
